# Blender v2.78 (sub 0) OBJ File: ''
# www.blender.org
mtllib Bullet.mtl
o Sphere
v 0.000000 3.909133 -0.382683
v 0.000000 3.271898 -0.707107
v 0.000000 2.318208 -0.923880
v 0.000000 1.193254 -1.000000
v 0.000000 0.068299 -0.923880
v 0.146447 3.909133 -0.353553
v 0.270598 3.271898 -0.653281
v 0.353553 2.318208 -0.853553
v 0.382683 1.193254 -0.923880
v 0.353553 0.068299 -0.853553
v -0.000000 4.132901 -0.000000
v 0.270598 3.909133 -0.270598
v 0.500000 3.271898 -0.500000
v 0.653281 2.318208 -0.653281
v 0.707107 1.193254 -0.707107
v 0.653281 0.068299 -0.653281
v 0.353553 3.909133 -0.146447
v 0.653281 3.271898 -0.270598
v 0.853553 2.318208 -0.353553
v 0.923879 1.193254 -0.382683
v 0.853553 0.068299 -0.353553
v 0.382683 3.909133 -0.000000
v 0.707107 3.271898 -0.000000
v 0.923879 2.318208 -0.000000
v 1.000000 1.193254 -0.000000
v 0.923879 0.068299 -0.000000
v 0.353553 3.909133 0.146446
v 0.653281 3.271898 0.270598
v 0.853553 2.318208 0.353553
v 0.923879 1.193254 0.382683
v 0.853553 0.068299 0.353553
v 0.270598 3.909133 0.270598
v 0.500000 3.271898 0.500000
v 0.653281 2.318208 0.653281
v 0.707106 1.193254 0.707107
v 0.653281 0.068299 0.653281
v 0.146446 3.909133 0.353553
v 0.270598 3.271898 0.653281
v 0.353553 2.318208 0.853553
v 0.382683 1.193254 0.923879
v 0.353553 0.068299 0.853553
v -0.000000 3.909133 0.382683
v -0.000000 3.271898 0.707106
v -0.000000 2.318208 0.923879
v -0.000000 1.193254 1.000000
v -0.000000 0.068299 0.923879
v -0.146447 3.909133 0.353553
v -0.270598 3.271898 0.653281
v -0.353554 2.318208 0.853553
v -0.382684 1.193254 0.923879
v -0.353554 0.068299 0.853553
v -0.270598 3.909133 0.270598
v -0.500000 3.271898 0.499999
v -0.653282 2.318208 0.653281
v -0.707107 1.193254 0.707106
v -0.653282 0.068299 0.653281
v -0.353553 3.909133 0.146446
v -0.653281 3.271898 0.270597
v -0.853553 2.318208 0.353553
v -0.923879 1.193254 0.382683
v -0.853553 0.068299 0.353553
v -0.382683 3.909133 -0.000000
v -0.707106 3.271898 -0.000000
v -0.923879 2.318208 -0.000001
v -1.000000 1.193254 -0.000001
v -0.923879 0.068299 -0.000001
v -0.353553 3.909133 -0.146447
v -0.653281 3.271898 -0.270598
v -0.853553 2.318208 -0.353554
v -0.923879 1.193254 -0.382684
v -0.853553 0.068299 -0.353554
v -0.270598 3.909133 -0.270598
v -0.499999 3.271898 -0.500000
v -0.653281 2.318208 -0.653282
v -0.707106 1.193254 -0.707107
v -0.653281 0.068299 -0.653282
v -0.146446 3.909133 -0.353553
v -0.270598 3.271898 -0.653281
v -0.353553 2.318208 -0.853553
v -0.382683 1.193254 -0.923880
v -0.353553 0.068299 -0.853553
vn 0.0000 0.0000 -1.0000
vn 0.0000 0.1436 -0.9896
vn 0.3787 0.1436 -0.9143
vn 0.3827 0.0000 -0.9239
vn 0.0000 0.3355 -0.9420
vn 0.0000 0.6692 -0.7431
vn 0.2843 0.6692 -0.6865
vn 0.3605 0.3355 -0.8703
vn 0.0000 -0.6904 -0.7234
vn 0.2768 -0.6904 -0.6684
vn 0.0000 1.0000 0.0000
vn 0.5254 0.6692 -0.5254
vn 0.6661 0.3355 -0.6661
vn 0.7071 0.0000 -0.7071
vn 0.5115 -0.6904 -0.5115
vn 0.6998 0.1436 -0.6998
vn 0.9239 0.0000 -0.3827
vn 0.6684 -0.6904 -0.2768
vn 0.8703 0.3355 -0.3605
vn 0.9143 0.1436 -0.3787
vn 0.6865 0.6692 -0.2844
vn 0.7431 0.6692 0.0000
vn 0.9896 0.1436 0.0000
vn 1.0000 0.0000 0.0000
vn 0.9420 0.3355 0.0000
vn 0.7234 -0.6904 0.0000
vn 0.9143 0.1436 0.3787
vn 0.9239 0.0000 0.3827
vn 0.6865 0.6692 0.2843
vn 0.8703 0.3355 0.3605
vn 0.6684 -0.6904 0.2768
vn 0.7071 0.0000 0.7071
vn 0.5115 -0.6904 0.5115
vn 0.6661 0.3355 0.6661
vn 0.6998 0.1436 0.6998
vn 0.5254 0.6692 0.5254
vn 0.3827 0.0000 0.9239
vn 0.2768 -0.6904 0.6684
vn 0.3605 0.3355 0.8703
vn 0.3787 0.1436 0.9143
vn 0.2843 0.6692 0.6865
vn 0.0000 0.1436 0.9896
vn 0.0000 0.0000 1.0000
vn 0.0000 0.6692 0.7431
vn 0.0000 0.3355 0.9420
vn 0.0000 -0.6904 0.7234
vn -0.3787 0.1436 0.9143
vn -0.3827 0.0000 0.9239
vn -0.2844 0.6692 0.6865
vn -0.3605 0.3355 0.8703
vn -0.2768 -0.6904 0.6684
vn -0.7071 0.0000 0.7071
vn -0.5115 -0.6904 0.5115
vn -0.6661 0.3355 0.6661
vn -0.6998 0.1436 0.6998
vn -0.5254 0.6692 0.5254
vn -0.8703 0.3355 0.3605
vn -0.9143 0.1436 0.3787
vn -0.6865 0.6692 0.2844
vn -0.9239 0.0000 0.3827
vn -0.6684 -0.6904 0.2768
vn -0.9896 0.1436 0.0000
vn -1.0000 0.0000 0.0000
vn -0.7431 0.6692 0.0000
vn -0.9420 0.3355 0.0000
vn -0.7234 -0.6904 0.0000
vn -0.6865 0.6692 -0.2844
vn -0.8703 0.3355 -0.3605
vn -0.9239 0.0000 -0.3827
vn -0.6684 -0.6904 -0.2768
vn -0.9143 0.1436 -0.3787
vn -0.7071 0.0000 -0.7071
vn -0.5115 -0.6904 -0.5115
vn -0.6661 0.3355 -0.6661
vn -0.6998 0.1436 -0.6998
vn -0.5254 0.6692 -0.5254
vn -0.2844 0.6692 -0.6865
vn -0.3787 0.1436 -0.9143
vn -0.3827 0.0000 -0.9239
vn -0.3605 0.3355 -0.8703
vn -0.2768 -0.6904 -0.6684
usemtl None
s 1
f 4//1 3//2 8//3 9//4
f 2//5 1//6 6//7 7//8
f 5//9 4//1 9//4 10//10
f 3//2 2//5 7//8 8//3
f 1//6 11//11 6//7
f 7//8 6//7 12//12 13//13
f 10//10 9//4 15//14 16//15
f 8//3 7//8 13//13 14//16
f 6//7 11//11 12//12
f 9//4 8//3 14//16 15//14
f 16//15 15//14 20//17 21//18
f 14//16 13//13 18//19 19//20
f 12//12 11//11 17//21
f 15//14 14//16 19//20 20//17
f 13//13 12//12 17//21 18//19
f 17//21 11//11 22//22
f 20//17 19//20 24//23 25//24
f 18//19 17//21 22//22 23//25
f 21//18 20//17 25//24 26//26
f 19//20 18//19 23//25 24//23
f 25//24 24//23 29//27 30//28
f 23//25 22//22 27//29 28//30
f 26//26 25//24 30//28 31//31
f 24//23 23//25 28//30 29//27
f 22//22 11//11 27//29
f 31//31 30//28 35//32 36//33
f 29//27 28//30 33//34 34//35
f 27//29 11//11 32//36
f 30//28 29//27 34//35 35//32
f 28//30 27//29 32//36 33//34
f 36//33 35//32 40//37 41//38
f 34//35 33//34 38//39 39//40
f 32//36 11//11 37//41
f 35//32 34//35 39//40 40//37
f 33//34 32//36 37//41 38//39
f 40//37 39//40 44//42 45//43
f 38//39 37//41 42//44 43//45
f 41//38 40//37 45//43 46//46
f 39//40 38//39 43//45 44//42
f 37//41 11//11 42//44
f 45//43 44//42 49//47 50//48
f 43//45 42//44 47//49 48//50
f 46//46 45//43 50//48 51//51
f 44//42 43//45 48//50 49//47
f 42//44 11//11 47//49
f 51//51 50//48 55//52 56//53
f 49//47 48//50 53//54 54//55
f 47//49 11//11 52//56
f 50//48 49//47 54//55 55//52
f 48//50 47//49 52//56 53//54
f 54//55 53//54 58//57 59//58
f 52//56 11//11 57//59
f 55//52 54//55 59//58 60//60
f 53//54 52//56 57//59 58//57
f 56//53 55//52 60//60 61//61
f 60//60 59//58 64//62 65//63
f 58//57 57//59 62//64 63//65
f 61//61 60//60 65//63 66//66
f 59//58 58//57 63//65 64//62
f 57//59 11//11 62//64
f 63//65 62//64 67//67 68//68
f 66//66 65//63 70//69 71//70
f 64//62 63//65 68//68 69//71
f 62//64 11//11 67//67
f 65//63 64//62 69//71 70//69
f 71//70 70//69 75//72 76//73
f 69//71 68//68 73//74 74//75
f 67//67 11//11 72//76
f 70//69 69//71 74//75 75//72
f 68//68 67//67 72//76 73//74
f 72//76 11//11 77//77
f 75//72 74//75 79//78 80//79
f 73//74 72//76 77//77 78//80
f 76//73 75//72 80//79 81//81
f 74//75 73//74 78//80 79//78
f 80//79 79//78 3//2 4//1
f 78//80 77//77 1//6 2//5
f 81//81 80//79 4//1 5//9
f 79//78 78//80 2//5 3//2
f 77//77 11//11 1//6
f 10//10 16//15 21//18 26//26 31//31 36//33 41//38 46//46 51//51 56//53 61//61 66//66 71//70 76//73 81//81 5//9
