# Blender v2.79 (sub 0) OBJ File: 'CityHall.blend'
# www.blender.org
mtllib Chair.mtl
o Chair_TrackUnapplied_Cube.006
v 0.264098 0.461234 0.236202
v 0.262095 0.461234 0.304327
v 0.264098 0.519986 0.236202
v 0.219840 0.519986 0.236202
v 0.219840 0.461234 0.236202
v 0.217732 0.519986 0.304327
v 0.262095 0.519986 0.304327
v 0.217732 0.461234 0.304327
v 0.235369 0.000533 0.270404
v 0.234644 0.000533 0.295061
v 0.255452 0.000533 0.270404
v 0.254727 0.000533 0.295061
v 0.258419 0.456219 0.299764
v 0.259421 0.456219 0.265701
v 0.231677 0.456219 0.265701
v 0.230675 0.456219 0.299764
v 0.257006 0.037723 0.297964
v 0.258419 0.147182 0.299764
v 0.259421 0.147182 0.265701
v 0.257902 0.037723 0.267501
v 0.233090 0.037723 0.267501
v 0.231677 0.147182 0.265701
v 0.230675 0.147182 0.299764
v 0.232194 0.037723 0.297964
v -0.278474 0.461234 0.236202
v -0.276470 0.461234 0.304327
v -0.278474 0.519986 0.236202
v -0.234215 0.519986 0.236202
v -0.234215 0.461234 0.236202
v -0.232108 0.519986 0.304327
v -0.276470 0.519986 0.304327
v -0.232108 0.461234 0.304327
v -0.249744 0.000533 0.270404
v -0.249019 0.000533 0.295061
v -0.269827 0.000533 0.270404
v -0.269102 0.000533 0.295061
v -0.272794 0.456219 0.299764
v -0.273796 0.456219 0.265701
v -0.246052 0.456219 0.265701
v -0.245050 0.456219 0.299764
v -0.271382 0.037723 0.297964
v -0.272794 0.147182 0.299764
v -0.273796 0.147182 0.265701
v -0.272277 0.037723 0.267501
v -0.247465 0.037723 0.267501
v -0.246052 0.147182 0.265701
v -0.245050 0.147182 0.299764
v -0.246569 0.037723 0.297964
v -0.000411 0.519986 0.304327
v -0.000411 0.461234 0.236202
v -0.000411 0.519986 0.236202
v -0.000411 0.461234 0.304327
v 0.264098 0.461234 -0.207729
v 0.262095 0.461234 -0.275854
v 0.264098 0.519986 -0.207729
v 0.219840 0.519986 -0.207729
v 0.219840 0.461234 -0.207729
v 0.217732 0.519986 -0.275854
v 0.262095 0.519986 -0.275854
v 0.217732 0.461234 -0.275854
v 0.235369 0.000533 -0.241931
v 0.234644 0.000533 -0.266587
v 0.255452 0.000533 -0.241931
v 0.254727 0.000533 -0.266587
v 0.258419 0.456219 -0.271290
v 0.259421 0.456219 -0.237228
v 0.231677 0.456219 -0.237228
v 0.230675 0.456219 -0.271290
v 0.257006 0.037723 -0.269491
v 0.258419 0.147182 -0.271290
v 0.259421 0.147182 -0.237228
v 0.257902 0.037723 -0.239027
v 0.233090 0.037723 -0.239027
v 0.231677 0.147182 -0.237228
v 0.230675 0.147182 -0.271290
v 0.232194 0.037723 -0.269491
v 0.217732 0.461234 -0.000475
v 0.262095 0.519986 -0.000475
v 0.217732 0.519986 -0.000475
v 0.262095 0.461234 -0.000475
v -0.278474 0.461234 -0.207729
v -0.276470 0.461234 -0.275854
v -0.278474 0.519986 -0.207729
v -0.234215 0.519986 -0.207729
v -0.234215 0.461234 -0.207729
v -0.232108 0.519986 -0.275854
v -0.276470 0.519986 -0.275854
v -0.232108 0.461234 -0.275854
v -0.249744 0.000533 -0.241931
v -0.249019 0.000533 -0.266587
v -0.269827 0.000533 -0.241931
v -0.269102 0.000533 -0.266587
v -0.272794 0.456219 -0.271290
v -0.273796 0.456219 -0.237228
v -0.246052 0.456219 -0.237228
v -0.245050 0.456219 -0.271290
v -0.271382 0.037723 -0.269491
v -0.272794 0.147182 -0.271290
v -0.273796 0.147182 -0.237228
v -0.272277 0.037723 -0.239027
v -0.247465 0.037723 -0.239027
v -0.246052 0.147182 -0.237228
v -0.245050 0.147182 -0.271290
v -0.246569 0.037723 -0.269491
v -0.000411 0.519986 -0.275854
v -0.000411 0.461234 -0.207729
v -0.000411 0.519986 -0.207729
v -0.000411 0.461234 -0.275854
v -0.232108 0.461234 -0.000475
v -0.276470 0.519986 -0.000475
v -0.232107 0.519986 -0.000475
v -0.276470 0.461234 -0.000475
v 0.239956 1.129766 0.360757
v 0.239956 1.129766 0.302006
v 0.189422 1.129766 0.302006
v 0.189422 1.129766 0.360757
v -0.253500 1.126717 0.360295
v -0.253500 1.126717 0.301543
v -0.202966 1.126717 0.301543
v -0.202966 1.126717 0.360295
v 0.000051 1.129748 0.375925
v 0.000051 1.129748 0.317173
v 0.239428 0.567605 0.299298
v 0.238462 0.513831 0.299298
v 0.239428 0.567605 0.240546
v 0.188895 0.567605 0.240546
v 0.188895 0.567605 0.299298
v 0.187929 0.513831 0.240546
v 0.238462 0.513831 0.240546
v 0.187929 0.513831 0.299298
v 0.188020 0.668523 0.287045
v 0.238553 0.668523 0.228294
v 0.188020 0.668523 0.228294
v 0.238553 0.668523 0.287045
v -0.252982 0.567605 0.299298
v -0.252016 0.513831 0.299298
v -0.252982 0.567605 0.240546
v -0.202449 0.567605 0.240546
v -0.202449 0.567605 0.299298
v -0.201483 0.513831 0.240546
v -0.252016 0.513831 0.240546
v -0.201483 0.513831 0.299298
v 0.111249 0.513831 0.240546
v 0.111249 0.567605 0.299298
v 0.111249 0.567605 0.240546
v 0.111249 0.513831 0.299298
v -0.201574 0.668523 0.287045
v -0.252107 0.668523 0.228294
v -0.201574 0.668523 0.228294
v -0.252107 0.668523 0.287045
v 0.188390 0.804501 0.310075
v 0.189088 1.028857 0.345446
v 0.238923 0.804501 0.251324
v 0.239621 1.028857 0.286695
v 0.188389 0.804501 0.251324
v 0.189088 1.028857 0.286695
v 0.239621 1.028857 0.345446
v 0.238923 0.804501 0.310075
v -0.202642 1.028857 0.345446
v -0.201944 0.804501 0.310075
v -0.253175 1.028857 0.286695
v -0.252477 0.804501 0.251324
v -0.202642 1.028857 0.286695
v -0.201944 0.804501 0.251324
v -0.252477 0.804501 0.310075
v -0.253175 1.028857 0.345446
v 0.239956 1.204566 0.302006
v 0.189422 1.204566 0.302006
v 0.239956 1.204566 0.360757
v 0.189422 1.204566 0.360757
v 0.000051 1.204549 0.375925
v 0.000051 1.204549 0.317173
v -0.253500 1.201517 0.301543
v -0.202966 1.201517 0.301543
v -0.253500 1.201517 0.360295
v -0.202966 1.201517 0.360295
v -0.248759 0.464938 0.237351
v -0.248759 0.464938 -0.262648
v 0.231241 0.464938 0.237351
v 0.231241 0.464938 -0.262648
v -0.242174 0.535637 0.228950
v -0.248759 0.528338 0.237352
v -0.242174 0.535637 -0.254247
v -0.248759 0.528338 -0.262648
v 0.224656 0.535637 0.228950
v 0.231241 0.528338 0.237352
v 0.224656 0.535637 -0.254247
v 0.231241 0.528338 -0.262648
vn 0.0000 1.0000 0.0000
vn 0.0000 0.0000 1.0000
vn -0.9996 0.0000 -0.0294
vn 0.0000 -1.0000 -0.0000
vn 0.0000 0.0000 -1.0000
vn 0.9996 0.0000 0.0294
vn 0.0000 -0.6731 0.7396
vn 0.0000 -0.0778 -0.9970
vn 0.0000 -0.9859 -0.1676
vn -0.9976 -0.0634 -0.0293
vn 0.7960 -0.6048 0.0234
vn 0.9976 -0.0634 0.0293
vn -0.3655 -0.9307 -0.0111
vn 0.0000 -0.0164 0.9999
vn 0.0000 -0.0164 -0.9999
vn 0.9995 -0.0134 0.0294
vn -0.9995 -0.0134 -0.0294
vn 0.0000 -0.0778 0.9970
vn -1.0000 -0.0000 0.0089
vn 1.0000 0.0000 -0.0085
vn 0.9996 -0.0000 -0.0294
vn -0.9996 0.0000 0.0294
vn 0.9976 -0.0634 -0.0293
vn -0.7960 -0.6048 0.0234
vn -0.9976 -0.0634 0.0293
vn 0.3655 -0.9307 -0.0111
vn -0.9995 -0.0134 0.0294
vn 0.9995 -0.0134 -0.0294
vn 1.0000 -0.0000 0.0089
vn -1.0000 -0.0000 -0.0085
vn -0.0000 -0.6731 -0.7396
vn 0.0000 -0.9859 0.1676
vn 0.7960 -0.6048 -0.0234
vn -0.3655 -0.9307 0.0111
vn -0.9999 -0.0000 -0.0102
vn 1.0000 0.0000 0.0097
vn -0.7960 -0.6048 -0.0234
vn 0.3655 -0.9307 0.0111
vn 0.9999 -0.0000 -0.0102
vn -1.0000 0.0000 0.0097
vn -1.0000 0.0027 0.0000
vn 0.0000 0.1500 -0.9887
vn 1.0000 -0.0027 0.0000
vn 0.0000 -0.1500 0.9887
vn -0.0768 0.0000 0.9970
vn 0.0768 0.0000 -0.9970
vn 1.0000 0.0033 0.0000
vn -1.0000 -0.0033 0.0000
vn 0.9998 -0.0180 0.0000
vn 0.0000 0.1205 0.9927
vn -1.0000 -0.0087 0.0000
vn 0.0000 -0.1205 -0.9927
vn 1.0000 0.0087 0.0000
vn -0.9998 -0.0180 0.0000
vn 1.0000 -0.0087 0.0000
vn -1.0000 0.0087 0.0000
vn 0.0000 0.1670 -0.9860
vn 1.0000 -0.0033 -0.0000
vn 0.0000 -0.1670 0.9860
vn -1.0000 0.0033 0.0000
vn -1.0000 -0.0027 0.0000
vn 1.0000 0.0027 0.0000
vn 1.0000 -0.0031 -0.0000
vn 0.0000 0.1557 -0.9878
vn 0.0000 -0.1557 0.9878
vn -1.0000 -0.0031 0.0000
vn -0.0001 1.0000 0.0000
vn -0.0149 0.9999 0.0000
vn -0.0798 0.0000 -0.9968
vn 1.0000 0.0000 -0.0000
vn 0.0798 0.0000 0.9968
vn -1.0000 0.0000 0.0000
vn -0.7425 0.6699 0.0000
vn 0.0000 0.7549 -0.6558
vn 0.7425 0.6699 0.0000
vn 0.0000 0.7549 0.6558
usemtl None
s off
f 3//1 4//1 6//1 7//1
f 52//2 8//2 6//2 49//2
f 16//3 15//3 22//3 23//3
f 13//2 16//2 23//2 18//2
f 11//4 12//4 10//4 9//4
f 15//5 14//5 19//5 22//5
f 14//6 13//6 18//6 19//6
f 2//7 8//7 16//7 13//7
f 21//8 20//8 11//8 9//8
f 5//9 1//9 14//9 15//9
f 24//10 21//10 9//10 10//10
f 1//11 2//11 13//11 14//11
f 20//12 17//12 12//12 11//12
f 8//13 5//13 15//13 16//13
f 24//14 17//14 18//14 23//14
f 20//15 21//15 22//15 19//15
f 17//16 20//16 19//16 18//16
f 21//17 24//17 23//17 22//17
f 17//18 24//18 10//18 12//18
f 6//2 8//2 2//2 7//2
f 3//6 7//6 2//6 1//6
f 5//5 50//5 51//5 4//5
f 8//4 52//4 50//4 5//4
f 6//1 4//1 51//1 49//1
f 1//4 5//4 77//4 80//4
f 4//19 79//19 77//19 5//19
f 3//1 78//1 79//1 4//1
f 1//20 80//20 78//20 3//20
f 27//1 31//1 30//1 28//1
f 52//2 49//2 30//2 32//2
f 40//21 47//21 46//21 39//21
f 37//2 42//2 47//2 40//2
f 35//4 33//4 34//4 36//4
f 39//5 46//5 43//5 38//5
f 38//22 43//22 42//22 37//22
f 26//7 37//7 40//7 32//7
f 45//8 33//8 35//8 44//8
f 29//9 39//9 38//9 25//9
f 48//23 34//23 33//23 45//23
f 25//24 38//24 37//24 26//24
f 44//25 35//25 36//25 41//25
f 32//26 40//26 39//26 29//26
f 48//14 47//14 42//14 41//14
f 44//15 43//15 46//15 45//15
f 41//27 42//27 43//27 44//27
f 45//28 46//28 47//28 48//28
f 41//18 36//18 34//18 48//18
f 30//2 31//2 26//2 32//2
f 27//22 25//22 26//22 31//22
f 29//5 28//5 51//5 50//5
f 32//4 29//4 50//4 52//4
f 30//1 49//1 51//1 28//1
f 25//4 112//4 109//4 29//4
f 28//29 29//29 109//29 111//29
f 27//1 28//1 111//1 110//1
f 25//30 27//30 110//30 112//30
f 55//1 59//1 58//1 56//1
f 108//5 105//5 58//5 60//5
f 68//22 75//22 74//22 67//22
f 65//5 70//5 75//5 68//5
f 63//4 61//4 62//4 64//4
f 67//2 74//2 71//2 66//2
f 66//21 71//21 70//21 65//21
f 54//31 65//31 68//31 60//31
f 73//18 61//18 63//18 72//18
f 57//32 67//32 66//32 53//32
f 76//25 62//25 61//25 73//25
f 53//33 66//33 65//33 54//33
f 72//23 63//23 64//23 69//23
f 60//34 68//34 67//34 57//34
f 76//15 75//15 70//15 69//15
f 72//14 71//14 74//14 73//14
f 69//28 70//28 71//28 72//28
f 73//27 74//27 75//27 76//27
f 69//8 64//8 62//8 76//8
f 58//5 59//5 54//5 60//5
f 55//21 53//21 54//21 59//21
f 57//2 56//2 107//2 106//2
f 60//4 57//4 106//4 108//4
f 58//1 105//1 107//1 56//1
f 53//4 80//4 77//4 57//4
f 56//35 57//35 77//35 79//35
f 55//1 56//1 79//1 78//1
f 53//36 55//36 78//36 80//36
f 83//1 84//1 86//1 87//1
f 108//5 88//5 86//5 105//5
f 96//6 95//6 102//6 103//6
f 93//5 96//5 103//5 98//5
f 91//4 92//4 90//4 89//4
f 95//2 94//2 99//2 102//2
f 94//3 93//3 98//3 99//3
f 82//31 88//31 96//31 93//31
f 101//18 100//18 91//18 89//18
f 85//32 81//32 94//32 95//32
f 104//12 101//12 89//12 90//12
f 81//37 82//37 93//37 94//37
f 100//10 97//10 92//10 91//10
f 88//38 85//38 95//38 96//38
f 104//15 97//15 98//15 103//15
f 100//14 101//14 102//14 99//14
f 97//17 100//17 99//17 98//17
f 101//16 104//16 103//16 102//16
f 97//8 104//8 90//8 92//8
f 86//5 88//5 82//5 87//5
f 83//3 87//3 82//3 81//3
f 85//2 106//2 107//2 84//2
f 88//4 108//4 106//4 85//4
f 86//1 84//1 107//1 105//1
f 81//4 85//4 109//4 112//4
f 84//39 111//39 109//39 85//39
f 83//1 110//1 111//1 84//1
f 81//40 112//40 110//40 83//40
usemtl None.002
f 114//5 115//5 168//5 167//5
f 155//41 133//41 131//41 151//41
f 114//42 154//42 156//42 115//42
f 158//43 134//43 132//43 153//43
f 117//44 166//44 159//44 120//44
f 119//45 122//45 172//45 174//45
f 116//2 113//2 169//2 170//2
f 121//46 120//46 176//46 171//46
f 118//42 119//42 163//42 161//42
f 119//47 120//47 159//47 163//47
f 159//1 152//1 156//1 163//1
f 117//48 118//48 161//48 166//48
f 125//5 129//5 128//5 126//5
f 146//4 143//4 128//4 130//4
f 130//2 124//2 123//2 127//2
f 142//2 139//2 135//2 136//2
f 128//4 129//4 124//4 130//4
f 125//49 123//49 124//49 129//49
f 127//1 126//1 145//1 144//1
f 130//2 127//2 144//2 146//2
f 128//5 143//5 145//5 126//5
f 123//50 134//50 131//50 127//50
f 126//51 127//51 131//51 133//51
f 125//52 126//52 133//52 132//52
f 123//53 125//53 132//53 134//53
f 137//5 138//5 140//5 141//5
f 146//4 142//4 140//4 143//4
f 140//4 142//4 136//4 141//4
f 137//54 141//54 136//54 135//54
f 139//1 144//1 145//1 138//1
f 142//2 146//2 144//2 139//2
f 140//5 138//5 145//5 143//5
f 135//50 139//50 147//50 150//50
f 138//55 149//55 147//55 139//55
f 137//52 148//52 149//52 138//52
f 135//56 150//56 148//56 137//56
f 153//57 132//57 133//57 155//57
f 113//58 157//58 154//58 114//58
f 158//59 151//59 131//59 134//59
f 115//60 156//60 152//60 116//60
f 162//57 164//57 149//57 148//57
f 165//61 162//61 148//61 150//61
f 165//59 150//59 147//59 160//59
f 164//62 160//62 147//62 149//62
f 158//63 153//63 154//63 157//63
f 153//64 155//64 156//64 154//64
f 163//64 156//64 155//64 164//64
f 151//65 158//65 157//65 152//65
f 162//66 165//66 166//66 161//66
f 164//64 162//64 161//64 163//64
f 160//4 164//4 155//4 151//4
f 165//65 160//65 159//65 166//65
f 113//44 116//44 152//44 157//44
f 159//65 160//65 151//65 152//65
f 170//67 168//67 172//67 171//67
f 169//1 167//1 168//1 170//1
f 176//68 171//68 172//68 174//68
f 173//1 175//1 176//1 174//1
f 116//69 121//69 171//69 170//69
f 119//5 118//5 173//5 174//5
f 113//70 114//70 167//70 169//70
f 117//2 120//2 176//2 175//2
f 122//71 115//71 168//71 172//71
f 118//72 117//72 175//72 173//72
f 187//1 183//1 181//1 185//1
f 180//70 188//70 186//70 179//70
f 177//72 182//72 184//72 178//72
f 178//4 180//4 179//4 177//4
f 178//5 184//5 188//5 180//5
f 181//73 183//73 184//73 182//73
f 183//74 187//74 188//74 184//74
f 187//75 185//75 186//75 188//75
f 185//76 181//76 182//76 186//76
f 179//2 186//2 182//2 177//2
