# Blender v2.79 (sub 0) OBJ File: 'CityHall.blend'
# www.blender.org
mtllib HallWayEnd.mtl
o HallWayEnd_Cube.006
v -2.460595 0.007881 5.500000
v -2.482700 0.095497 5.500000
v -2.460595 0.033443 5.500000
v -2.500000 0.095371 5.500000
v -2.482718 0.074812 5.500000
v -2.468392 0.043361 5.500000
v -2.470045 0.063585 5.500000
v -2.500000 5.443801 5.500000
v -2.460595 0.007881 5.224134
v -2.500000 0.095371 5.224134
v -2.470045 0.063585 5.224134
v -2.482700 0.095497 5.224134
v -2.460595 0.033443 5.224134
v -2.482718 0.074812 5.224134
v -2.468392 0.043361 5.224134
v -2.500000 5.443801 5.221740
v -2.414127 5.443801 5.389091
v -2.460595 0.007881 5.391045
v -2.500000 0.095371 5.391045
v -2.470045 0.063585 5.391045
v -2.482700 0.095497 5.391045
v -2.460595 0.033443 5.391045
v -2.482718 0.074812 5.391045
v -2.468392 0.043361 5.391045
v -2.500000 5.443801 5.389088
v -2.390015 5.551188 5.211108
v -2.418994 5.551097 5.195306
v -2.448398 5.484209 5.196553
v -2.390000 5.484209 5.232748
v -2.440990 5.437738 5.187107
v -2.390000 5.443675 5.236200
v -2.414893 5.443714 5.271302
v -2.465084 5.443742 5.221740
v -2.390736 5.535728 5.221913
v -2.430595 5.535728 5.196657
v -2.382775 5.464359 5.223534
v -2.437793 5.464359 5.185878
v -2.390000 5.525810 5.245049
v -2.449171 5.520967 5.200011
v -2.414127 4.536695 5.389091
v -2.500000 4.536695 5.389088
v -2.500000 4.536695 5.500000
v -2.414127 4.536695 5.500000
v -2.179457 4.536695 5.396746
v -2.179457 4.536695 5.500000
v -1.949434 4.751018 5.399513
v -0.462220 5.202652 5.414580
v -1.626049 4.947264 5.403403
v -1.345017 5.086428 5.406784
v -1.001936 5.159234 5.410911
v -1.949434 4.751018 5.490630
v -0.462220 5.202652 5.505697
v -1.626049 4.947264 5.494520
v -1.345017 5.086428 5.497901
v -1.001936 5.159234 5.502028
v 2.460595 0.007881 5.500000
v 2.482700 0.095497 5.500000
v 0.000000 0.007881 5.500000
v 2.460595 0.033443 5.500000
v 2.500000 0.095371 5.500000
v 2.482718 0.074812 5.500000
v 2.468392 0.043361 5.500000
v 2.470045 0.063585 5.500000
v 0.000000 5.561291 5.224134
v 0.000000 5.443675 5.236200
v 0.000000 5.535728 5.232300
v 2.500000 5.443801 5.500000
v 0.000000 5.464359 5.274420
v 0.000000 5.525810 5.250097
v 0.000000 5.484209 5.250103
v 2.460595 0.007881 5.224134
v 2.500000 0.095371 5.224134
v 2.470045 0.063585 5.224134
v 2.482700 0.095497 5.224134
v 0.000000 0.007881 5.224134
v 2.460595 0.033443 5.224134
v 2.482718 0.074812 5.224134
v 2.468392 0.043361 5.224134
v 0.000000 5.443801 5.418107
v 2.500000 5.443801 5.221740
v 2.414127 5.443801 5.389091
v 2.460595 0.007881 5.391045
v 2.500000 0.095371 5.391045
v 2.470045 0.063585 5.391045
v 2.482700 0.095497 5.391045
v 0.000000 0.007881 5.391045
v 2.460595 0.033443 5.391045
v 2.482718 0.074812 5.391045
v 2.468392 0.043361 5.391045
v 2.500000 5.443801 5.389088
v 2.390015 5.551188 5.211108
v 2.418994 5.551097 5.195306
v 2.448398 5.484209 5.196553
v 2.390000 5.484209 5.232748
v 2.440990 5.437738 5.187107
v 2.390000 5.443675 5.236200
v 2.414893 5.443714 5.271302
v 2.465084 5.443742 5.221740
v 2.390736 5.535728 5.221913
v 2.430595 5.535728 5.196657
v 2.382775 5.464359 5.223534
v 2.437793 5.464359 5.185878
v 2.390000 5.525810 5.245049
v 2.449171 5.520967 5.200011
v 2.414127 4.536695 5.389091
v 2.500000 4.536695 5.389088
v 2.500000 4.536695 5.500000
v 2.414127 4.536695 5.500000
v 2.179457 4.536695 5.396746
v 2.179457 4.536695 5.500000
v 1.949434 4.751018 5.399513
v 0.462220 5.202652 5.414580
v 0.000000 5.210791 5.418107
v 1.626049 4.947264 5.403403
v 1.345017 5.086428 5.406784
v 1.001936 5.159234 5.410911
v 1.949434 4.751018 5.490630
v 0.462220 5.202652 5.505697
v 0.000000 5.210791 5.509224
v 1.626049 4.947264 5.494520
v 1.345017 5.086428 5.497901
v 1.001936 5.159234 5.502028
v -2.460595 0.007881 -5.500000
v -2.482700 0.095497 -5.500000
v -2.460595 0.033443 -5.500000
v -2.500000 0.095371 -5.500000
v -2.482718 0.074812 -5.500000
v -2.468392 0.043361 -5.500000
v -2.470045 0.063585 -5.500000
v -2.500000 5.443801 -5.500000
v -2.460595 0.007881 0.000000
v -2.482700 0.095497 0.000000
v -2.500000 0.095371 0.000000
v -2.460595 0.033443 0.000000
v -2.482718 0.074812 0.000000
v -2.468392 0.043361 0.000000
v -2.470046 0.063585 0.000000
v -2.430595 5.561291 0.000000
v -2.472700 5.443675 0.000000
v -2.500000 5.443801 0.000000
v -2.430595 5.535728 0.000000
v -2.472718 5.464359 0.000000
v -2.448392 5.525810 0.000000
v -2.448398 5.484209 0.000000
v -2.460595 0.007881 -5.224134
v -2.500000 0.095371 -5.224134
v -2.470045 0.063585 -5.224134
v -2.482700 0.095497 -5.224134
v -2.460595 0.033443 -5.224134
v -2.482718 0.074812 -5.224134
v -2.468392 0.043361 -5.224134
v -2.500000 5.443801 -5.221740
v -2.414127 5.443801 -5.389091
v -2.460595 0.007881 -5.391045
v -2.500000 0.095371 -5.391045
v -2.470045 0.063585 -5.391045
v -2.482700 0.095497 -5.391045
v -2.460595 0.033443 -5.391045
v -2.482718 0.074812 -5.391045
v -2.468392 0.043361 -5.391045
v -2.500000 5.443801 -5.389088
v -2.390015 5.551188 -5.211108
v -2.418994 5.551097 -5.195306
v -2.448398 5.484209 -5.196553
v -2.390000 5.484209 -5.232748
v -2.440990 5.437738 -5.187107
v -2.390000 5.443675 -5.236200
v -2.414893 5.443714 -5.271302
v -2.465084 5.443742 -5.221740
v -2.390736 5.535728 -5.221913
v -2.430595 5.535728 -5.196657
v -2.382775 5.464359 -5.223534
v -2.437793 5.464359 -5.185878
v -2.390000 5.525810 -5.245049
v -2.449171 5.520967 -5.200011
v -2.414127 4.536695 -5.389091
v -2.500000 4.536695 -5.389088
v -2.500000 4.536695 -5.500000
v -2.414127 4.536695 -5.500000
v -2.179457 4.536695 -5.396746
v -2.179457 4.536695 -5.500000
v -1.949434 4.751018 -5.399513
v -0.462220 5.202652 -5.414580
v -1.626049 4.947264 -5.403403
v -1.345017 5.086428 -5.406784
v -1.001936 5.159234 -5.410911
v -1.949434 4.751018 -5.490630
v -0.462220 5.202652 -5.505697
v -1.626049 4.947264 -5.494520
v -1.345017 5.086428 -5.497901
v -1.001936 5.159234 -5.502028
v 2.460595 0.007881 -5.500000
v 2.482700 0.095497 -5.500000
v 0.000000 0.007881 -5.500000
v 2.460595 0.033443 -5.500000
v 2.500000 0.095371 -5.500000
v 2.482718 0.074812 -5.500000
v 2.468392 0.043361 -5.500000
v 2.470045 0.063585 -5.500000
v 0.000000 5.561291 -5.224134
v 0.000000 5.443675 -5.236200
v 0.000000 5.535728 -5.232300
v 2.500000 5.443801 -5.500000
v 0.000000 5.464359 -5.274420
v 0.000000 5.525810 -5.250097
v 0.000000 5.484209 -5.250103
v 2.460595 0.007881 0.000000
v 2.482700 0.095497 0.000000
v 0.000000 0.007881 0.000000
v 2.500000 0.095371 0.000000
v 2.460595 0.033443 0.000000
v 2.482718 0.074812 0.000000
v 2.468392 0.043361 0.000000
v 2.470046 0.063585 0.000000
v 2.430595 5.561291 0.000000
v 2.472700 5.443675 0.000000
v 0.000000 5.561291 0.000000
v 2.500000 5.443801 0.000000
v 2.430595 5.535728 0.000000
v 2.472718 5.464359 0.000000
v 2.448392 5.525810 0.000000
v 2.448398 5.484209 0.000000
v 2.460595 0.007881 -5.224134
v 2.500000 0.095371 -5.224134
v 2.470045 0.063585 -5.224134
v 2.482700 0.095497 -5.224134
v 0.000000 0.007881 -5.224134
v 2.460595 0.033443 -5.224134
v 2.482718 0.074812 -5.224134
v 2.468392 0.043361 -5.224134
v 0.000000 5.443801 -5.418107
v 2.500000 5.443801 -5.221740
v 2.414127 5.443801 -5.389091
v 2.460595 0.007881 -5.391045
v 2.500000 0.095371 -5.391045
v 2.470045 0.063585 -5.391045
v 2.482700 0.095497 -5.391045
v 0.000000 0.007881 -5.391045
v 2.460595 0.033443 -5.391045
v 2.482718 0.074812 -5.391045
v 2.468392 0.043361 -5.391045
v 2.500000 5.443801 -5.389088
v 2.390015 5.551188 -5.211108
v 2.418994 5.551097 -5.195306
v 2.448398 5.484209 -5.196553
v 2.390000 5.484209 -5.232748
v 2.440990 5.437738 -5.187107
v 2.390000 5.443675 -5.236200
v 2.414893 5.443714 -5.271302
v 2.465084 5.443742 -5.221740
v 2.390736 5.535728 -5.221913
v 2.430595 5.535728 -5.196657
v 2.382775 5.464359 -5.223534
v 2.437793 5.464359 -5.185878
v 2.390000 5.525810 -5.245049
v 2.449171 5.520967 -5.200011
v 2.414127 4.536695 -5.389091
v 2.500000 4.536695 -5.389088
v 2.500000 4.536695 -5.500000
v 2.414127 4.536695 -5.500000
v 2.179457 4.536695 -5.396746
v 2.179457 4.536695 -5.500000
v 1.949434 4.751018 -5.399513
v 0.462220 5.202652 -5.414580
v 0.000000 5.210791 -5.418107
v 1.626049 4.947264 -5.403403
v 1.345017 5.086428 -5.406784
v 1.001936 5.159234 -5.410911
v 1.949434 4.751018 -5.490630
v 0.462220 5.202652 -5.505697
v 0.000000 5.210791 -5.509224
v 1.626049 4.947264 -5.494520
v 1.345017 5.086428 -5.497901
v 1.001936 5.159234 -5.502028
vn -0.0073 1.0000 0.0000
vn 0.0000 1.0000 0.0000
vn 1.0000 -0.0008 0.0000
vn 0.7861 0.6180 0.0000
vn 1.0000 0.0000 0.0000
vn 0.0021 -1.0000 -0.0010
vn -0.0715 -0.9974 0.0001
vn 1.0000 0.0098 0.0001
vn -0.0007 -1.0000 0.0004
vn 0.0091 0.5244 -0.8514
vn 0.9454 -0.3258 -0.0032
vn 0.0134 -0.3534 -0.9354
vn 0.9977 -0.0672 -0.0064
vn 0.5614 -0.8275 -0.0003
vn 0.0014 -0.8999 -0.4361
vn 0.0046 0.1462 -0.9892
vn 0.0053 -0.4198 -0.9076
vn -0.0000 -1.0000 0.0008
vn -0.0154 -0.9970 0.0755
vn 0.4506 -0.4775 -0.7543
vn 0.4544 0.5537 -0.6978
vn 0.6061 -0.3441 -0.7171
vn 0.3798 -0.7904 -0.4806
vn 0.5555 0.1692 -0.8141
vn 0.9621 -0.2727 -0.0013
vn 0.0000 -1.0000 0.0000
vn 0.0150 -0.0080 -0.9999
vn 0.0000 0.0000 -1.0000
vn 0.0802 -0.9968 0.0000
vn 0.5188 -0.8549 0.0000
vn 0.2076 -0.9782 0.0000
vn 0.4438 -0.8961 0.0000
vn 0.0176 -0.9998 0.0000
vn 0.6817 -0.7316 0.0000
vn 0.0022 0.0001 -1.0000
vn 0.0073 1.0000 0.0000
vn -1.0000 -0.0008 0.0000
vn -0.7861 0.6180 0.0000
vn -1.0000 0.0000 0.0000
vn -0.0021 -1.0000 -0.0010
vn 0.0715 -0.9974 0.0001
vn -1.0000 0.0098 0.0001
vn 0.0007 -1.0000 0.0004
vn -0.0091 0.5244 -0.8514
vn -0.9454 -0.3258 -0.0032
vn -0.0134 -0.3534 -0.9354
vn -0.9977 -0.0672 -0.0064
vn -0.5614 -0.8275 -0.0003
vn -0.0014 -0.8999 -0.4361
vn -0.0046 0.1462 -0.9892
vn -0.0053 -0.4198 -0.9076
vn 0.0154 -0.9970 0.0755
vn -0.4505 -0.4775 -0.7543
vn -0.4544 0.5537 -0.6978
vn -0.6061 -0.3441 -0.7171
vn -0.3798 -0.7904 -0.4806
vn -0.5555 0.1692 -0.8141
vn -0.9621 -0.2727 -0.0013
vn -0.0150 -0.0080 -0.9999
vn -0.0802 -0.9968 0.0000
vn -0.5188 -0.8549 0.0000
vn -0.2076 -0.9782 0.0000
vn -0.4438 -0.8961 0.0000
vn -0.0176 -0.9998 0.0000
vn -0.6817 -0.7316 0.0000
vn -0.0022 0.0001 -1.0000
vn 0.0021 -1.0000 0.0010
vn -0.0715 -0.9974 -0.0001
vn 1.0000 0.0098 -0.0001
vn -0.0007 -1.0000 -0.0004
vn 0.0091 0.5244 0.8514
vn 0.9454 -0.3258 0.0032
vn 0.0134 -0.3534 0.9354
vn 0.9977 -0.0672 0.0064
vn 0.5614 -0.8275 0.0003
vn 0.0014 -0.8999 0.4361
vn 0.0046 0.1462 0.9892
vn 0.0053 -0.4198 0.9076
vn -0.0000 -1.0000 -0.0008
vn -0.0154 -0.9970 -0.0755
vn 0.4505 -0.4775 0.7543
vn 0.4544 0.5537 0.6978
vn 0.6061 -0.3441 0.7171
vn 0.3798 -0.7904 0.4806
vn 0.5555 0.1692 0.8141
vn 0.9621 -0.2727 0.0013
vn 0.0150 -0.0080 0.9999
vn 0.0000 0.0000 1.0000
vn -0.0021 -1.0000 0.0010
vn 0.0715 -0.9974 -0.0001
vn -1.0000 0.0098 -0.0001
vn 0.0007 -1.0000 -0.0004
vn -0.0091 0.5244 0.8514
vn -0.9454 -0.3258 0.0032
vn -0.0134 -0.3534 0.9354
vn -0.9977 -0.0672 0.0064
vn -0.5614 -0.8275 0.0003
vn -0.0014 -0.8999 0.4361
vn -0.0046 0.1462 0.9892
vn -0.0053 -0.4198 0.9076
vn 0.0154 -0.9970 -0.0755
vn -0.4506 -0.4775 0.7543
vn -0.4544 0.5537 0.6978
vn -0.6061 -0.3441 0.7171
vn -0.3798 -0.7904 0.4806
vn -0.5555 0.1692 0.8141
vn -0.9621 -0.2727 0.0013
vn -0.0150 -0.0080 0.9999
vn 0.9121 0.4100 0.0000
vn 0.7124 0.3197 -0.6247
vn 0.6938 0.3463 -0.6314
vn 0.8944 0.4472 0.0000
vn 0.9309 0.3652 0.0000
vn 0.7100 0.2781 -0.6470
vn -0.9121 0.4100 0.0000
vn -0.8944 0.4472 0.0000
vn -0.6938 0.3463 -0.6314
vn -0.7124 0.3197 -0.6247
vn -0.9309 0.3652 0.0000
vn -0.7100 0.2781 -0.6470
usemtl None
s off
f 19//1 4//1 2//1 21//1
f 18//2 1//2 58//2 86//2
f 21//3 2//3 5//3 23//3
f 24//4 6//4 3//4 22//4
f 19//5 10//5 16//5 25//5
f 138//6 217//6 64//6 26//6 27//6
f 140//7 139//7 30//7 33//7 16//7
f 39//8 28//8 144//8 143//8
f 17//9 25//9 16//9 33//9 32//9
f 31//10 36//10 68//10 65//10
f 9//5 131//5 134//5 13//5
f 18//5 9//5 13//5 22//5
f 142//11 144//11 28//11 37//11
f 36//12 29//12 70//12 68//12
f 139//13 142//13 37//13 30//13
f 143//14 141//14 35//14 39//14
f 38//15 34//15 66//15 69//15
f 69//16 70//16 29//16 38//16
f 64//17 66//17 34//17 26//17
f 10//5 133//5 140//5 16//5
f 136//4 15//4 13//4 134//4
f 132//3 12//3 14//3 135//3
f 131//2 9//2 75//2 209//2
f 133//1 10//1 12//1 132//1
f 1//5 18//5 22//5 3//5
f 4//5 19//5 25//5 8//5
f 15//4 24//4 22//4 13//4
f 12//3 21//3 23//3 14//3
f 9//2 18//2 86//2 75//2
f 10//1 19//1 21//1 12//1
f 17//18 32//18 31//18 65//18 79//18
f 30//19 31//19 32//19 33//19
f 26//20 34//20 35//20 27//20
f 37//21 28//21 29//21 36//21
f 36//22 31//22 30//22 37//22
f 39//23 35//23 34//23 38//23
f 38//24 29//24 28//24 39//24
f 27//25 35//25 141//25 138//25
f 42//26 41//26 40//26 43//26
f 43//26 40//26 44//26 45//26
f 17//27 79//27 113//27 47//27 50//27 49//27 48//27 46//27 44//27 40//27
f 25//28 17//28 40//28 41//28
f 50//29 47//29 52//29 55//29
f 46//30 48//30 53//30 51//30
f 49//31 50//31 55//31 54//31
f 48//32 49//32 54//32 53//32
f 47//33 113//33 119//33 52//33
f 46//34 51//34 45//34 44//34
f 2//35 4//35 42//35 43//35 45//35 51//35 53//35 54//35 55//35 52//35 119//35 58//35 1//35 3//35 6//35 7//35 5//35
f 83//36 85//36 57//36 60//36
f 82//2 86//2 58//2 56//2
f 85//37 88//37 61//37 57//37
f 89//38 87//38 59//38 62//38
f 83//39 90//39 80//39 72//39
f 215//40 92//40 91//40 64//40 217//40
f 218//41 80//41 98//41 95//41 216//41
f 104//42 221//42 222//42 93//42
f 81//43 97//43 98//43 80//43 90//43
f 96//44 65//44 68//44 101//44
f 71//39 76//39 211//39 207//39
f 82//39 87//39 76//39 71//39
f 220//45 102//45 93//45 222//45
f 101//46 68//46 70//46 94//46
f 216//47 95//47 102//47 220//47
f 221//48 104//48 100//48 219//48
f 103//49 69//49 66//49 99//49
f 69//50 103//50 94//50 70//50
f 64//51 91//51 99//51 66//51
f 72//39 80//39 218//39 210//39
f 213//38 211//38 76//38 78//38
f 208//37 212//37 77//37 74//37
f 207//2 209//2 75//2 71//2
f 210//36 208//36 74//36 72//36
f 56//39 59//39 87//39 82//39
f 60//39 67//39 90//39 83//39
f 78//38 76//38 87//38 89//38
f 74//37 77//37 88//37 85//37
f 71//2 75//2 86//2 82//2
f 72//36 74//36 85//36 83//36
f 81//18 79//18 65//18 96//18 97//18
f 95//52 98//52 97//52 96//52
f 91//53 92//53 100//53 99//53
f 102//54 101//54 94//54 93//54
f 101//55 102//55 95//55 96//55
f 104//56 103//56 99//56 100//56
f 103//57 104//57 93//57 94//57
f 92//58 215//58 219//58 100//58
f 107//26 108//26 105//26 106//26
f 108//26 110//26 109//26 105//26
f 81//59 105//59 109//59 111//59 114//59 115//59 116//59 112//59 113//59 79//59
f 90//28 106//28 105//28 81//28
f 116//60 122//60 118//60 112//60
f 111//61 117//61 120//61 114//61
f 115//62 121//62 122//62 116//62
f 114//63 120//63 121//63 115//63
f 112//64 118//64 119//64 113//64
f 111//65 109//65 110//65 117//65
f 57//66 61//66 63//66 62//66 59//66 56//66 58//66 119//66 118//66 122//66 121//66 120//66 117//66 110//66 108//66 107//66 60//66
f 155//1 157//1 124//1 126//1
f 154//2 238//2 194//2 123//2
f 157//3 159//3 127//3 124//3
f 160//4 158//4 125//4 128//4
f 155//5 161//5 152//5 146//5
f 138//67 163//67 162//67 200//67 217//67
f 140//68 152//68 169//68 166//68 139//68
f 175//69 143//69 144//69 164//69
f 153//70 168//70 169//70 152//70 161//70
f 167//71 201//71 204//71 172//71
f 145//5 149//5 134//5 131//5
f 154//5 158//5 149//5 145//5
f 142//72 173//72 164//72 144//72
f 172//73 204//73 206//73 165//73
f 139//74 166//74 173//74 142//74
f 143//75 175//75 171//75 141//75
f 174//76 205//76 202//76 170//76
f 205//77 174//77 165//77 206//77
f 200//78 162//78 170//78 202//78
f 146//5 152//5 140//5 133//5
f 136//4 134//4 149//4 151//4
f 132//3 135//3 150//3 148//3
f 131//2 209//2 227//2 145//2
f 133//1 132//1 148//1 146//1
f 123//5 125//5 158//5 154//5
f 126//5 130//5 161//5 155//5
f 151//4 149//4 158//4 160//4
f 148//3 150//3 159//3 157//3
f 145//2 227//2 238//2 154//2
f 146//1 148//1 157//1 155//1
f 153//79 231//79 201//79 167//79 168//79
f 166//80 169//80 168//80 167//80
f 162//81 163//81 171//81 170//81
f 173//82 172//82 165//82 164//82
f 172//83 173//83 166//83 167//83
f 175//84 174//84 170//84 171//84
f 174//85 175//85 164//85 165//85
f 163//86 138//86 141//86 171//86
f 178//26 179//26 176//26 177//26
f 179//26 181//26 180//26 176//26
f 153//87 176//87 180//87 182//87 184//87 185//87 186//87 183//87 265//87 231//87
f 161//88 177//88 176//88 153//88
f 186//29 191//29 188//29 183//29
f 182//30 187//30 189//30 184//30
f 185//31 190//31 191//31 186//31
f 184//32 189//32 190//32 185//32
f 183//33 188//33 271//33 265//33
f 182//34 180//34 181//34 187//34
f 235//36 196//36 193//36 237//36
f 234//2 192//2 194//2 238//2
f 237//37 193//37 197//37 240//37
f 241//38 198//38 195//38 239//38
f 235//39 224//39 232//39 242//39
f 215//89 217//89 200//89 243//89 244//89
f 218//90 216//90 247//90 250//90 232//90
f 256//91 245//91 222//91 221//91
f 233//92 242//92 232//92 250//92 249//92
f 248//93 253//93 204//93 201//93
f 223//39 207//39 211//39 228//39
f 234//39 223//39 228//39 239//39
f 220//94 222//94 245//94 254//94
f 253//95 246//95 206//95 204//95
f 216//96 220//96 254//96 247//96
f 221//97 219//97 252//97 256//97
f 255//98 251//98 202//98 205//98
f 205//99 206//99 246//99 255//99
f 200//100 202//100 251//100 243//100
f 224//39 210//39 218//39 232//39
f 213//38 230//38 228//38 211//38
f 208//37 226//37 229//37 212//37
f 207//2 223//2 227//2 209//2
f 210//36 224//36 226//36 208//36
f 192//39 234//39 239//39 195//39
f 196//39 235//39 242//39 203//39
f 230//38 241//38 239//38 228//38
f 226//37 237//37 240//37 229//37
f 223//2 234//2 238//2 227//2
f 224//36 235//36 237//36 226//36
f 233//79 249//79 248//79 201//79 231//79
f 247//101 248//101 249//101 250//101
f 243//102 251//102 252//102 244//102
f 254//103 245//103 246//103 253//103
f 253//104 248//104 247//104 254//104
f 256//105 252//105 251//105 255//105
f 255//106 246//106 245//106 256//106
f 244//107 252//107 219//107 215//107
f 259//26 258//26 257//26 260//26
f 260//26 257//26 261//26 262//26
f 233//108 231//108 265//108 264//108 268//108 267//108 266//108 263//108 261//108 257//108
f 242//88 233//88 257//88 258//88
f 268//60 264//60 270//60 274//60
f 263//61 266//61 272//61 269//61
f 267//62 268//62 274//62 273//62
f 266//63 267//63 273//63 272//63
f 264//64 265//64 271//64 270//64
f 263//65 269//65 262//65 261//65
s 1
f 23//109 5//110 7//111 20//112
f 15//113 136//113 137//112 11//112
f 24//113 15//113 11//112 20//112
f 135//109 14//109 11//112 137//112
f 6//114 24//113 20//112 7//111
f 14//109 23//109 20//112 11//112
f 88//115 84//116 63//117 61//118
f 78//119 73//116 214//116 213//119
f 89//119 84//116 73//116 78//119
f 212//115 214//116 73//116 77//115
f 62//120 63//117 84//116 89//119
f 77//115 73//116 84//116 88//115
f 159//109 156//112 129//112 127//109
f 151//113 147//112 137//112 136//113
f 160//113 156//112 147//112 151//113
f 135//109 137//112 147//112 150//109
f 128//113 129//112 156//112 160//113
f 150//109 147//112 156//112 159//109
f 240//115 197//115 199//116 236//116
f 230//119 213//119 214//116 225//116
f 241//119 230//119 225//116 236//116
f 212//115 229//115 225//116 214//116
f 198//119 241//119 236//116 199//116
f 229//115 240//115 236//116 225//116
