# Blender v2.79 (sub 0) OBJ File: 'CityHall.blend'
# www.blender.org
mtllib Painting.mtl
o Painting_Cube.003
v 0.028552 -0.000319 0.500000
v 0.028552 0.999681 0.500000
v -0.013786 -0.000319 0.500000
v -0.013786 0.999681 0.500000
v 0.028551 -0.000319 -0.500000
v 0.028551 0.999681 -0.500000
v -0.013786 -0.000319 -0.500000
v -0.013786 0.999681 -0.500000
v 0.006920 0.962824 -0.463142
v 0.006920 0.036539 -0.463142
v 0.006920 0.036539 0.463142
v 0.006920 0.962824 0.463142
v -0.016572 0.990952 0.491271
v -0.016572 0.008410 0.491271
v -0.016572 0.008410 -0.491271
v -0.016572 0.990952 -0.491271
v -0.017971 0.975055 0.475374
v -0.006769 0.962824 0.463142
v -0.006769 0.036539 0.463142
v -0.017971 0.024308 0.475374
v -0.006769 0.036539 -0.463142
v -0.017971 0.024308 -0.475374
v -0.017971 0.975055 -0.475374
v -0.006769 0.962824 -0.463142
vn 0.0000 0.0000 1.0000
vn -0.9527 -0.3040 0.0000
vn 0.0000 0.0000 -1.0000
vn 0.0000 -1.0000 -0.0000
vn 0.0000 1.0000 -0.0000
vn -0.9527 0.3040 0.0000
vn -0.9961 0.0877 0.0000
vn -1.0000 0.0000 0.0000
vn -0.9527 -0.0000 -0.3040
vn -0.9961 -0.0000 0.0877
vn -0.9527 0.0000 0.3040
vn -0.9961 -0.0877 0.0000
vn -0.9961 -0.0000 -0.0877
vn -0.7375 -0.0000 -0.6754
vn -0.7375 0.6754 0.0000
vn -0.7375 -0.6754 0.0000
vn -0.7375 -0.0000 0.6754
usemtl None
s off
f 1//1 2//1 4//1 3//1
f 7//2 3//2 14//2 15//2
f 7//3 8//3 6//3 5//3
f 3//4 7//4 5//4 1//4
f 8//5 4//5 2//5 6//5
f 4//6 8//6 16//6 13//6
f 13//7 16//7 23//7 17//7
f 11//8 12//8 9//8 10//8
f 8//9 7//9 15//9 16//9
f 21//5 19//5 11//5 10//5
f 24//1 21//1 10//1 9//1
f 17//10 20//10 14//10 13//10
f 3//11 4//11 13//11 14//11
f 15//12 14//12 20//12 22//12
f 16//13 15//13 22//13 23//13
f 19//3 18//3 12//3 11//3
f 18//14 19//14 20//14 17//14
f 19//15 21//15 22//15 20//15
f 24//16 18//16 17//16 23//16
f 21//17 24//17 23//17 22//17
f 18//4 24//4 9//4 12//4
