# Blender v2.79 (sub 0) OBJ File: 'Cavern.blend'
# www.blender.org
mtllib Stopper.mtl
o Stopper_Cube.001
v -0.643888 0.019056 -0.327114
v -0.643888 1.000000 -0.029532
v -0.643888 0.019056 -0.617350
v -0.643888 1.000000 -0.201436
v -0.372883 0.019056 -0.327114
v -0.372883 1.000000 -0.029532
v -0.372883 0.019056 -0.617350
v -0.372883 1.000000 -0.201436
v -0.643888 0.837745 -0.029532
v -0.643888 0.837745 -0.319768
v -0.372883 0.837745 -0.319768
v -0.372883 0.837745 -0.029532
v -0.643888 0.240791 -0.617350
v -0.372883 0.240791 -0.617350
v -0.372883 0.240791 -0.327114
v -0.643888 0.240791 -0.327114
v 0.643888 0.019056 -0.327114
v 0.643888 1.000000 -0.029532
v 0.643888 0.019056 -0.617350
v 0.643888 1.000000 -0.201436
v 0.372883 0.019056 -0.327114
v 0.372883 1.000000 -0.029532
v 0.372883 0.019056 -0.617350
v 0.372883 1.000000 -0.201436
v 0.643888 0.837745 -0.029532
v 0.643888 0.837745 -0.319768
v 0.372883 0.837745 -0.319768
v 0.372883 0.837745 -0.029532
v 0.643888 0.240791 -0.617350
v 0.372883 0.240791 -0.617350
v 0.372883 0.240791 -0.327114
v 0.643888 0.240791 -0.327114
v 0.000000 0.240791 -0.617350
v 0.000000 0.019056 -0.617350
v 0.000000 0.019056 -0.327114
v 0.000000 0.240791 -0.327114
v -0.881521 0.763172 0.036462
v -0.881521 1.236828 0.036462
v -0.881521 0.763172 -0.036462
v -0.881521 1.236828 -0.036462
v 0.881521 0.763172 0.036462
v 0.881521 1.236828 0.036462
v 0.881521 0.763172 -0.036462
v 0.881521 1.236828 -0.036462
vn -1.0000 0.0000 0.0000
vn 0.0000 0.5892 -0.8080
vn 1.0000 -0.0000 0.0000
vn 0.0000 0.0000 1.0000
vn 0.0000 -1.0000 0.0000
vn 0.0000 1.0000 0.0000
vn 0.0000 -0.4461 0.8950
vn 0.0000 0.4461 -0.8950
vn 0.0000 0.0000 -1.0000
usemtl None
s off
f 9//1 2//1 4//1 10//1
f 10//2 4//2 8//2 11//2
f 11//3 8//3 6//3 12//3
f 12//4 6//4 2//4 9//4
f 3//5 7//5 5//5 1//5
f 8//6 4//6 2//6 6//6
f 15//7 12//7 9//7 16//7
f 14//3 11//3 12//3 15//3
f 13//8 10//8 11//8 14//8
f 16//1 9//1 10//1 13//1
f 1//1 16//1 13//1 3//1
f 3//9 13//9 14//9 7//9
f 15//4 5//4 35//4 36//4
f 5//4 15//4 16//4 1//4
f 5//5 7//5 34//5 35//5
f 7//9 14//9 33//9 34//9
f 14//6 15//6 36//6 33//6
f 25//3 26//3 20//3 18//3
f 26//2 27//2 24//2 20//2
f 27//1 28//1 22//1 24//1
f 28//4 25//4 18//4 22//4
f 19//5 17//5 21//5 23//5
f 24//6 22//6 18//6 20//6
f 31//7 32//7 25//7 28//7
f 30//1 31//1 28//1 27//1
f 29//8 30//8 27//8 26//8
f 32//3 29//3 26//3 25//3
f 17//3 19//3 29//3 32//3
f 19//9 23//9 30//9 29//9
f 31//4 36//4 35//4 21//4
f 21//4 17//4 32//4 31//4
f 21//5 35//5 34//5 23//5
f 23//9 34//9 33//9 30//9
f 30//6 33//6 36//6 31//6
f 37//1 38//1 40//1 39//1
f 39//9 40//9 44//9 43//9
f 43//3 44//3 42//3 41//3
f 41//4 42//4 38//4 37//4
f 39//5 43//5 41//5 37//5
f 44//6 40//6 38//6 42//6
