# Blender v2.78 (sub 0) OBJ File: 'CaneModel.blend'
# www.blender.org
mtllib CaneModel.mtl
o Cylinder
v 0.000000 -0.409608 2.525955
v 0.000000 -0.426295 -1.258421
v 0.250570 -0.331376 2.530326
v 0.250570 -0.344880 -1.258421
v 0.405430 -0.126573 2.536736
v 0.405430 -0.131732 -1.258421
v 0.405430 0.126573 2.536736
v 0.405430 0.131732 -1.258421
v 0.250570 0.331376 2.530326
v 0.250570 0.344880 -1.258421
v -0.000000 0.409608 2.525955
v -0.000000 0.426295 -1.258421
v -0.250570 0.331385 2.528975
v -0.250570 0.344880 -1.258421
v -0.405430 0.126579 2.534545
v -0.405430 0.131732 -1.258421
v -0.405430 -0.126579 2.534545
v -0.405430 -0.131732 -1.258421
v -0.250570 -0.331385 2.528975
v -0.250570 -0.344880 -1.258421
v 0.000000 -0.409608 2.525955
v 0.250570 -0.331376 2.530326
v 0.405430 -0.126573 2.536736
v 0.405430 0.126573 2.536736
v 0.250570 0.331376 2.530326
v -0.000000 0.409608 2.525955
v 0.020334 -0.307010 2.744069
v -0.168101 0.149423 18.053602
v 0.020335 0.184697 18.053270
v 0.020335 -0.184697 18.053270
v 0.020334 -0.255649 9.918383
v 0.020334 0.307010 2.744069
v -0.168102 0.248376 2.745841
v -0.284562 0.094871 2.748709
v -0.284562 -0.094871 2.748709
v -0.168102 -0.248376 2.745841
v 0.020334 -0.307010 2.744069
v 0.208769 -0.248376 2.745841
v 0.325229 -0.094871 2.748709
v 0.325229 0.094871 2.748709
v 0.208769 0.248376 2.745841
v 0.020334 0.307010 2.744069
v 0.020334 -0.301482 3.810874
v 0.020334 -0.252681 10.293919
v 0.020335 -0.180942 18.226881
v 0.020337 -0.138223 21.060396
v 0.208773 -0.111825 21.060396
v 0.020334 0.301482 3.810874
v -0.168102 0.243904 3.812888
v -0.284562 0.093163 3.816150
v -0.284562 -0.093163 3.816150
v -0.168102 -0.243904 3.812888
v 0.020334 -0.301482 3.810874
v 0.208769 -0.243904 3.812888
v 0.325229 -0.093163 3.816150
v 0.325229 0.093163 3.816150
v 0.208769 0.243904 3.812888
v 0.020334 0.301482 3.810874
v 0.020335 -0.184697 18.053270
v 0.020334 0.255649 9.918383
v -0.168102 0.206824 9.920877
v -0.284561 0.079000 9.924047
v -0.284561 -0.079000 9.924047
v -0.168102 -0.206824 9.920877
v 0.020334 -0.255649 9.918383
v 0.208770 -0.206824 9.920877
v 0.325229 -0.079000 9.924047
v 0.325229 0.079000 9.924047
v 0.208770 0.206824 9.920877
v 0.020334 0.255649 9.918383
v 0.325233 -0.042713 21.060396
v 0.020334 0.252681 10.293919
v -0.168102 0.204424 10.296335
v -0.284561 0.078083 10.299492
v -0.284561 -0.078083 10.299492
v -0.168102 -0.204423 10.296335
v 0.020334 -0.252681 10.293919
v 0.208770 -0.204423 10.296335
v 0.325229 -0.078083 10.299492
v 0.325229 0.078083 10.299492
v 0.208770 0.204424 10.296335
v 0.020334 0.252681 10.293919
v 0.020337 -0.138223 21.010256
v 0.020335 0.184697 18.053270
v -0.168101 0.149423 18.053602
v -0.284560 0.057075 18.054136
v -0.284560 -0.057074 18.054136
v -0.168101 -0.149423 18.053602
v 0.020335 -0.184697 18.053270
v 0.208771 -0.149423 18.053602
v 0.325230 -0.057074 18.054136
v 0.325230 0.057075 18.054136
v 0.208771 0.149423 18.053602
v 0.020335 0.184697 18.053270
v 0.325233 0.042714 21.060396
v 0.020335 0.180942 18.226881
v -0.168101 0.146386 18.227165
v -0.284560 0.055914 18.227625
v -0.284560 -0.055914 18.227625
v -0.168101 -0.146385 18.227165
v 0.020335 -0.180942 18.226881
v 0.208771 -0.146385 18.227165
v 0.325230 -0.055914 18.227625
v 0.325230 0.055914 18.227625
v 0.208771 0.146386 18.227165
v 0.020335 0.180942 18.226881
v 0.020335 -0.180942 18.226881
v 0.020337 0.138223 21.010256
v -0.168099 0.111825 21.010256
v -0.284558 0.042714 21.010256
v -0.284558 -0.042713 21.010256
v -0.168098 -0.111825 21.010256
v 0.020337 -0.138223 21.010256
v 0.208773 -0.111825 21.010256
v 0.325233 -0.042713 21.010256
v 0.325233 0.042714 21.010256
v 0.208773 0.111825 21.010256
v 0.020337 0.138223 21.010256
v 0.208773 0.111825 21.060396
v 0.020337 0.138223 21.060396
v -0.168098 0.111825 21.060396
v -0.284558 0.042714 21.060396
v -0.284558 -0.042713 21.060396
v -0.168098 -0.111825 21.060396
v 0.020337 -0.138223 21.060396
v 0.208773 -0.111825 21.060396
v 0.325233 -0.042713 21.060396
v 0.325233 0.042714 21.060396
v 0.208773 0.111825 21.060396
v 0.020337 0.138223 21.060396
v -0.284560 0.057075 18.054136
v -0.284560 -0.057074 18.054136
v -0.168101 -0.149423 18.053602
v 0.020335 -0.184697 18.053270
v 0.208771 -0.149423 18.053602
v 0.325230 -0.057074 18.054136
v 0.325230 0.057075 18.054136
v 0.208771 0.149423 18.053602
v 0.020335 0.184697 18.053270
v 0.020335 0.180942 18.226881
v -0.168101 0.146386 18.227165
v -0.284560 0.055914 18.227625
v -0.284560 -0.055914 18.227625
v -0.168101 -0.146385 18.227165
v 0.020335 -0.180942 18.226881
v 0.208771 -0.146385 18.227165
v 0.325230 -0.055914 18.227625
v 0.325230 0.055914 18.227625
v 0.208771 0.146386 18.227165
v 0.020335 0.180942 18.226881
v -0.120965 0.112046 18.053602
v 0.020335 0.138496 18.053270
v 0.020335 -0.138496 18.053270
v 0.020335 -0.135680 18.226881
v -0.208293 0.042798 18.054136
v -0.208293 -0.042797 18.054136
v -0.120965 -0.112045 18.053602
v 0.020335 -0.138496 18.053270
v 0.161635 -0.112045 18.053602
v 0.248963 -0.042797 18.054136
v 0.248963 0.042798 18.054136
v 0.161635 0.112046 18.053602
v 0.020335 0.138496 18.053270
v 0.020335 0.135681 18.226881
v -0.120965 0.109768 18.227165
v -0.208293 0.041928 18.227625
v -0.208293 -0.041927 18.227625
v -0.120965 -0.109768 18.227165
v 0.020335 -0.135680 18.226881
v 0.161635 -0.109768 18.227165
v 0.248962 -0.041927 18.227625
v 0.248962 0.041928 18.227625
v 0.161635 0.109768 18.227165
v 0.020335 0.135681 18.226881
v 0.020334 -0.191387 9.918383
v 0.020334 -0.189166 10.293919
v 0.020334 0.191387 9.918383
v -0.120735 0.154836 9.920877
v -0.207921 0.059142 9.924047
v -0.207921 -0.059142 9.924047
v -0.120735 -0.154835 9.920877
v 0.020334 -0.191387 9.918383
v 0.161403 -0.154835 9.920877
v 0.248589 -0.059142 9.924047
v 0.248589 0.059142 9.924047
v 0.161403 0.154836 9.920877
v 0.020334 0.191387 9.918383
v 0.020334 0.189166 10.293919
v -0.120735 0.153038 10.296335
v -0.207921 0.058456 10.299492
v -0.207921 -0.058455 10.299492
v -0.120735 -0.153038 10.296335
v 0.020334 -0.189166 10.293919
v 0.161403 -0.153038 10.296335
v 0.248589 -0.058455 10.299492
v 0.248589 0.058456 10.299492
v 0.161403 0.153038 10.296335
v 0.020334 0.189166 10.293919
v 0.000000 -0.426295 -2.238613
v 0.250570 -0.344880 -2.238613
v 0.405430 -0.131732 -2.238613
v 0.405430 0.131732 -2.238613
v 0.250570 0.344880 -2.238613
v -0.000000 0.426295 -2.238613
v -0.250570 0.344880 -2.238613
v -0.405430 0.131732 -2.238613
v -0.405430 -0.131732 -2.238613
v -0.250570 -0.344880 -2.238613
v 0.000000 -0.200192 -2.487814
v 0.117670 -0.161958 -2.487814
v 0.190394 -0.061863 -2.487814
v 0.190394 0.061863 -2.487814
v 0.117670 0.161958 -2.487814
v 0.000000 0.200191 -2.487814
v -0.117670 0.161958 -2.487814
v -0.190393 0.061863 -2.487814
v -0.190393 -0.061863 -2.487814
v -0.117670 -0.161959 -2.487814
vt 0.1131 0.1708
vt 0.4566 0.1693
vt 0.4566 0.1767
vt 0.1127 0.1779
vt 0.4566 0.1961
vt 0.1121 0.1965
vt 0.4566 0.2200
vt 0.1121 0.2195
vt 0.4566 0.2393
vt 0.1127 0.2381
vt 0.4566 0.2467
vt 0.1131 0.2452
vt 0.4566 0.2393
vt 0.1128 0.2381
vt 0.4566 0.2200
vt 0.1123 0.2195
vt 0.4566 0.1961
vt 0.1123 0.1965
vt 0.5456 0.2200
vt 0.5456 0.1961
vt 0.4566 0.1767
vt 0.1128 0.1779
vt 0.0931 0.1855
vt 0.0928 0.1994
vt 0.0933 0.1801
vt 0.1127 0.1779
vt 0.1121 0.1965
vt 0.0928 0.1994
vt 0.0931 0.1855
vt 0.1127 0.2381
vt 0.1131 0.2452
vt 0.0933 0.2359
vt 0.0931 0.2306
vt 0.1131 0.1708
vt 0.0933 0.1801
vt 0.8069 0.5248
vt 0.8070 0.5273
vt 0.7603 0.5271
vt 0.7602 0.5246
vt 0.8068 0.5181
vt 0.8068 0.5097
vt 0.7600 0.5098
vt 0.7600 0.5180
vt 0.8070 0.5005
vt 0.8069 0.5030
vt 0.7602 0.5032
vt 0.7603 0.5007
vt 0.8070 0.5005
vt 0.7603 0.5007
vt 0.8068 0.5181
vt 0.7600 0.5180
vt 0.8069 0.5248
vt 0.7602 0.5246
vt 0.1121 0.2195
vt 0.0928 0.2166
vt 0.0933 0.2359
vt 0.0928 0.2166
vt 0.0931 0.2306
vt 0.7473 0.1604
vt 0.7410 0.1602
vt 0.7460 0.8256
vt 0.7513 0.8258
vt 0.8067 0.1602
vt 0.8067 0.1602
vt 0.8017 0.8256
vt 0.8017 0.8256
vt 0.7637 0.1608
vt 0.7840 0.1608
vt 0.7824 0.8262
vt 0.7652 0.8262
vt 0.8004 0.1604
vt 0.7964 0.8258
vt 0.7637 0.1608
vt 0.7652 0.8262
vt 0.7473 0.1604
vt 0.7513 0.8258
vt 0.8068 0.5097
vt 0.7600 0.5098
vt 0.8069 0.5030
vt 0.7602 0.5032
vt 0.8070 0.5273
vt 0.7603 0.5271
vt 0.7460 0.8256
vt 0.7570 0.8258
vt 0.7530 0.8256
vt 0.7516 0.8668
vt 0.7653 0.8671
vt 0.7675 0.8671
vt 0.7572 0.8668
vt 0.7530 0.8256
vt 0.7570 0.8258
vt 0.7823 0.8671
vt 0.7802 0.8671
vt 0.8014 0.8665
vt 0.7961 0.8668
vt 0.7905 0.8668
vt 0.7944 0.8665
vt 0.7674 0.8262
vt 0.7840 0.1608
vt 0.7824 0.8262
vt 0.8004 0.1604
vt 0.7964 0.8258
vt 0.7410 0.1602
vt 0.4762 0.5105
vt 0.4762 0.5173
vt 0.1367 0.5164
vt 0.1367 0.5114
vt 0.4764 0.5250
vt 0.4763 0.5229
vt 0.1367 0.5204
vt 0.1367 0.5220
vt 0.4762 0.5105
vt 0.4763 0.5050
vt 0.1367 0.5074
vt 0.1367 0.5114
vt 0.4763 0.5050
vt 0.1367 0.5074
vt 0.4763 0.5229
vt 0.4764 0.5250
vt 0.1367 0.5220
vt 0.1367 0.5204
vt 0.4762 0.5173
vt 0.1367 0.5164
vt 0.7961 0.8668
vt 0.7905 0.8668
vt 0.7823 0.8671
vt 0.7802 0.8671
vt 0.7803 0.8262
vt 0.7463 0.8665
vt 0.7463 0.8665
vt 0.7532 0.8665
vt 0.7532 0.8665
vt 0.8014 0.8665
vt 0.7944 0.8665
vt 0.7947 0.8256
vt 0.7907 0.8258
vt 0.8970 0.7570
vt 0.8970 0.7448
vt 0.8970 0.7448
vt 0.8970 0.7570
vt 0.9160 0.7672
vt 0.9159 0.7572
vt 0.9159 0.7572
vt 0.9160 0.7672
vt 0.8971 0.7706
vt 0.8971 0.7706
vt 0.8971 0.7706
vt 0.8971 0.7706
vt 0.9159 0.7572
vt 0.9160 0.7672
vt 0.9160 0.7672
vt 0.9159 0.7572
vt 0.8970 0.7350
vt 0.8970 0.7350
vt 0.9160 0.7308
vt 0.9160 0.7308
vt 0.9160 0.7308
vt 0.9160 0.7308
vt 0.4764 0.5028
vt 0.1367 0.5058
vt 0.4764 0.5028
vt 0.1367 0.5058
vt 0.8970 0.7669
vt 0.5938 0.7631
vt 0.5938 0.7660
vt 0.8970 0.7448
vt 0.8970 0.7350
vt 0.5938 0.7388
vt 0.5938 0.7463
vt 0.5938 0.7463
vt 0.5938 0.7388
vt 0.8970 0.7669
vt 0.5938 0.7660
vt 0.5938 0.7631
vt 0.8970 0.7570
vt 0.5938 0.7556
vt 0.8971 0.7312
vt 0.5938 0.7359
vt 0.9160 0.7711
vt 0.9160 0.7711
vt 0.9159 0.7447
vt 0.9159 0.7447
vt 0.8971 0.7312
vt 0.9160 0.7711
vt 0.9160 0.7711
vt 0.9160 0.7347
vt 0.9160 0.7347
vt 0.8971 0.7312
vt 0.8970 0.7350
vt 0.8971 0.7312
vt 0.3356 0.3010
vt 0.3356 0.2902
vt 0.3278 0.2902
vt 0.3278 0.3010
vt 0.3356 0.2902
vt 0.3356 0.3010
vt 0.3278 0.3010
vt 0.3278 0.2902
vt 0.3356 0.3253
vt 0.3356 0.3294
vt 0.3278 0.3294
vt 0.3278 0.3253
vt 0.3356 0.3144
vt 0.3278 0.3144
vt 0.3356 0.2861
vt 0.3278 0.2861
vt 0.3356 0.2861
vt 0.3278 0.2861
vt 0.5938 0.7556
vt 0.5938 0.7359
vt 0.3278 0.2902
vt 0.3278 0.3010
vt 0.3278 0.3144
vt 0.3278 0.3253
vt 0.3278 0.3294
vt 0.3278 0.3253
vt 0.3278 0.3144
vt 0.3356 0.3294
vt 0.3356 0.3253
vt 0.3356 0.3144
vt 0.9160 0.7660
vt 0.9160 0.7631
vt 0.8970 0.7669
vt 0.8971 0.7657
vt 0.8970 0.7629
vt 0.9159 0.7556
vt 0.9160 0.7631
vt 0.8970 0.7464
vt 0.8970 0.7555
vt 0.9159 0.7556
vt 0.9160 0.7358
vt 0.9160 0.7358
vt 0.9160 0.7660
vt 0.8970 0.7390
vt 0.9159 0.7463
vt 0.8971 0.7362
vt 0.9160 0.7387
vt 0.9159 0.7447
vt 0.9159 0.7447
vt 0.8970 0.7669
vt 0.8970 0.7570
vt 0.9160 0.7347
vt 0.9160 0.7347
vt 0.8970 0.7448
vt 0.9159 0.7463
vt 0.9160 0.7387
vt 0.8970 0.7390
vt 0.8970 0.7464
vt 0.8971 0.7657
vt 0.8970 0.7629
vt 0.8970 0.7555
vt 0.8971 0.7362
vt 0.7947 0.8256
vt 0.7674 0.8262
vt 0.7803 0.8262
vt 0.7675 0.8671
vt 0.7907 0.8258
vt 0.7572 0.8668
vt 0.7516 0.8668
vt 0.7653 0.8671
vt 0.5456 0.2393
vt 0.5456 0.2467
vt 0.5682 0.2262
vt 0.5682 0.2227
vt 0.5456 0.2393
vt 0.5456 0.2200
vt 0.5456 0.1693
vt 0.5456 0.1767
vt 0.5456 0.1961
vt 0.5456 0.1767
vt 0.5682 0.1933
vt 0.5682 0.1898
vt 0.5682 0.1933
vt 0.5682 0.2024
vt 0.5682 0.2136
vt 0.5682 0.2227
vt 0.5682 0.2136
vt 0.5682 0.2024
vn 0.3035 -0.9528 0.0038
vn 0.8034 -0.5954 0.0015
vn 1.0000 0.0000 0.0000
vn 0.8034 0.5954 0.0015
vn 0.3035 0.9528 0.0038
vn -0.3035 0.9528 0.0038
vn -0.8034 0.5954 0.0015
vn -1.0000 0.0000 0.0000
vn -0.8034 -0.5954 0.0015
vn -0.3035 -0.9528 0.0038
vn -0.6973 -0.5391 0.4724
vn -0.2643 -0.8629 0.4307
vn 0.7382 -0.5684 0.3632
vn 0.2691 0.8805 0.3902
vn 0.2691 -0.8805 0.3902
vn 0.0000 0.0000 1.0000
vn 0.2946 0.9556 0.0045
vn 0.2946 -0.9556 0.0045
vn 0.7940 0.6079 0.0018
vn -0.7940 0.6079 0.0018
vn 0.9353 0.0000 0.3539
vn -0.8709 0.0000 0.4915
vn -0.6973 0.5391 0.4724
vn -0.2643 0.8629 0.4307
vn 0.7382 0.5684 0.3632
vn -0.2716 -0.9624 0.0065
vn -0.2716 0.9624 0.0065
vn -0.7671 -0.6415 0.0027
vn 0.7671 -0.6415 0.0027
vn 0.7940 -0.6079 0.0018
vn -0.7940 -0.6079 0.0018
vn -0.2946 0.9556 0.0045
vn -0.2946 -0.9556 0.0045
vn -0.0137 -0.0056 0.9999
vn -0.0107 0.0187 -0.9998
vn 0.0137 -0.0056 0.9999
vn 0.0000 0.0000 -1.0000
vn 0.0133 -0.0055 -0.9999
vn 0.0108 -0.0186 0.9998
vn -0.7671 0.6415 0.0027
vn 0.7671 0.6415 0.0027
vn 0.2716 -0.9624 0.0065
vn 0.2716 0.9624 0.0065
vn -0.2163 0.9763 0.0077
vn -0.6845 -0.7290 0.0036
vn 0.6845 -0.7290 0.0036
vn 0.2163 0.9763 0.0077
vn -0.0107 -0.0187 -0.9998
vn 0.0107 -0.0187 -0.9998
vn -0.0133 -0.0055 -0.9999
vn -0.0137 0.0056 0.9999
vn -0.2163 -0.9763 0.0077
vn -0.6845 0.7290 0.0036
vn 0.6845 0.7290 0.0036
vn 0.2163 -0.9763 0.0077
vn -0.1596 0.9871 0.0137
vn -0.5652 -0.8249 0.0071
vn 0.5652 -0.8249 0.0071
vn 0.1596 0.9871 0.0137
vn 0.1596 -0.9871 0.0137
vn -0.5103 -0.8600 0.0000
vn 0.5103 -0.8600 -0.0000
vn 0.1387 0.9903 0.0000
vn 0.1387 -0.9903 0.0000
vn -0.1596 -0.9871 0.0137
vn -0.5652 0.8249 0.0071
vn 0.5652 0.8249 0.0071
vn -0.1387 0.9903 0.0000
vn -0.1387 -0.9903 0.0000
vn -0.5103 0.8600 0.0000
vn 0.5104 0.8600 -0.0000
vn -0.0018 0.0010 1.0000
vn -0.0016 -0.0009 -1.0000
vn 0.0018 0.0043 1.0000
vn -0.0018 0.0043 1.0000
vn 0.0018 0.0010 1.0000
vn 0.0016 0.0038 -1.0000
vn 0.0016 0.0009 -1.0000
vn -0.0018 -0.0043 1.0000
vn -0.1821 0.9832 0.0144
vn -0.6174 -0.7866 0.0071
vn 0.6174 -0.7866 0.0071
vn 0.1821 0.9832 0.0144
vn -0.1821 -0.9832 0.0144
vn -0.6174 0.7866 0.0071
vn 0.6174 0.7866 0.0071
vn 0.1821 -0.9832 0.0144
vn 0.0016 -0.0038 -1.0000
vn -0.0015 -0.0038 -1.0000
vn 0.0016 -0.0009 -1.0000
vn 0.0018 -0.0043 1.0000
vn 0.0018 -0.0010 1.0000
vn -0.0016 0.0038 -1.0000
vn -0.0018 -0.0010 1.0000
vn -0.0016 0.0009 -1.0000
vn -0.2494 0.9684 0.0052
vn -0.7372 -0.6757 0.0022
vn 0.7372 -0.6757 0.0022
vn 0.2494 0.9684 0.0052
vn -0.2494 -0.9684 0.0052
vn -0.7372 0.6757 0.0022
vn 0.7372 0.6757 0.0022
vn 0.2494 -0.9684 0.0052
vn -0.0133 0.0055 -0.9999
vn -0.0107 -0.0186 0.9998
vn 0.0133 0.0055 -0.9999
vn 0.0137 0.0056 0.9999
vn 0.0107 0.0187 -0.9998
vn -0.0108 0.0186 0.9998
vn 0.0108 0.0186 0.9998
vn -0.2340 0.7200 -0.6533
vn -0.8090 0.5878 -0.0000
vn -0.3090 0.9511 0.0000
vn 0.3090 0.9511 -0.0000
vn 0.8090 0.5878 -0.0000
vn 0.3090 -0.9511 0.0000
vn 0.8090 -0.5878 0.0000
vn -0.3090 -0.9511 0.0000
vn -0.8090 -0.5878 0.0000
vn 0.7571 0.0000 -0.6533
vn -0.2340 -0.7200 -0.6533
vn -0.6125 0.4450 -0.6533
vn 0.6125 0.4450 -0.6533
vn 0.2340 -0.7200 -0.6533
vn -0.7571 0.0000 -0.6533
vn 0.2340 0.7200 -0.6533
vn 0.6125 -0.4450 -0.6533
vn -0.6125 -0.4450 -0.6533
usemtl CaneMat
s off
f 1/1/1 2/2/1 4/3/1 3/4/1
f 3/4/2 4/3/2 6/5/2 5/6/2
f 5/6/3 6/5/3 8/7/3 7/8/3
f 7/8/4 8/7/4 10/9/4 9/10/4
f 9/10/5 10/9/5 12/11/5 11/12/5
f 11/12/6 12/11/6 14/13/6 13/14/6
f 13/14/7 14/13/7 16/15/7 15/16/7
f 15/16/8 16/15/8 18/17/8 17/18/8
f 18/17/8 16/15/8 206/19/8 207/20/8
f 17/18/9 18/17/9 20/21/9 19/22/9
f 19/22/10 20/21/10 2/2/10 1/1/10
f 17/18/11 19/22/11 36/23/11 35/24/11
f 19/22/12 1/1/12 27/25/12 36/23/12
f 22/26/13 23/27/13 39/28/13 38/29/13
f 25/30/14 26/31/14 42/32/14 41/33/14
f 21/34/15 22/26/15 38/29/15 37/35/15
f 1/1/16 21/34/16 37/35/16 27/25/16
f 41/36/17 42/37/17 58/38/17 57/39/17
f 34/40/8 35/41/8 51/42/8 50/43/8
f 37/44/18 38/45/18 54/46/18 53/47/18
f 27/48/16 37/44/16 53/47/16 43/49/16
f 40/50/19 41/36/19 57/39/19 56/51/19
f 33/52/20 34/40/20 50/43/20 49/53/20
f 23/27/21 24/54/21 40/55/21 39/28/21
f 26/31/16 11/12/16 32/56/16 42/32/16
f 15/16/22 17/18/22 35/24/22 34/57/22
f 13/14/23 15/16/23 34/57/23 33/58/23
f 11/12/24 13/14/24 33/58/24 32/56/24
f 24/54/25 25/30/25 41/33/25 40/55/25
f 52/59/26 43/60/26 31/61/26 64/62/26
f 58/63/16 48/64/16 60/65/16 70/66/16
f 55/67/3 56/68/3 68/69/3 67/70/3
f 48/64/27 49/71/27 61/72/27 60/65/27
f 51/73/28 52/59/28 64/62/28 63/74/28
f 54/75/29 55/67/29 67/70/29 66/76/29
f 38/45/30 39/77/30 55/78/30 54/46/30
f 35/41/31 36/79/31 52/80/31 51/42/31
f 32/81/32 33/52/32 49/53/32 48/82/32
f 39/77/3 40/50/3 56/51/3 55/78/3
f 42/37/16 32/81/16 48/82/16 58/38/16
f 36/79/33 27/48/33 43/49/33 52/80/33
f 65/83/34 66/76/34 183/84/34 182/85/34
f 76/86/35 75/87/35 191/88/35 192/89/35
f 64/62/36 31/61/36 175/90/36 181/91/36
f 75/87/37 74/92/37 190/93/37 191/88/37
f 82/94/38 81/95/38 197/96/38 198/97/38
f 63/74/39 64/62/39 181/91/39 180/98/39
f 49/71/40 50/99/40 62/100/40 61/72/40
f 56/68/41 57/101/41 69/102/41 68/69/41
f 43/60/16 53/103/16 65/83/16 31/61/16
f 53/103/42 54/75/42 66/76/42 65/83/42
f 50/99/8 51/73/8 63/74/8 62/100/8
f 57/101/43 58/63/43 70/66/43 69/102/43
f 79/104/3 80/105/3 92/106/3 91/107/3
f 72/108/44 73/109/44 85/110/44 84/111/44
f 75/112/45 76/113/45 88/114/45 87/115/45
f 78/116/46 79/104/46 91/107/46 90/117/46
f 81/118/47 82/119/47 94/120/47 93/121/47
f 74/122/8 75/112/8 87/115/8 86/123/8
f 74/92/48 73/124/48 189/125/48 190/93/48
f 81/95/49 80/126/49 196/127/49 197/96/49
f 62/100/16 63/74/16 180/98/16 179/128/16
f 77/129/16 44/130/16 176/131/16 193/132/16
f 73/124/50 72/133/50 188/134/50 189/125/50
f 69/102/51 70/66/51 187/135/51 186/136/51
f 104/137/16 103/138/16 147/139/16 148/140/16
f 85/141/16 86/142/16 131/143/16 28/144/16
f 96/145/16 106/146/16 150/147/16 140/148/16
f 92/149/16 93/150/16 138/151/16 137/152/16
f 103/138/16 102/153/16 146/154/16 147/139/16
f 59/155/16 89/156/16 134/157/16 30/158/16
f 82/119/16 72/108/16 84/111/16 94/120/16
f 76/113/52 44/159/52 59/160/52 88/114/52
f 73/109/53 74/122/53 86/123/53 85/110/53
f 80/105/54 81/118/54 93/121/54 92/106/54
f 44/159/16 77/161/16 89/162/16 59/160/16
f 77/161/55 78/116/55 90/117/55 89/162/55
f 96/145/56 97/163/56 109/164/56 108/165/56
f 99/166/57 100/167/57 112/168/57 111/169/57
f 102/153/58 103/138/58 115/170/58 114/171/58
f 105/172/59 106/146/59 118/173/59 117/174/59
f 98/175/8 99/166/8 111/169/8 110/176/8
f 101/177/60 102/153/60 114/171/60 113/178/60
f 84/179/16 85/141/16 28/144/16 29/180/16
f 91/181/16 92/149/16 137/152/16 136/182/16
f 102/153/16 101/177/16 145/183/16 146/154/16
f 94/184/16 84/179/16 29/180/16 139/185/16
f 90/186/16 91/181/16 136/182/16 135/187/16
f 45/188/16 100/167/16 144/189/16 107/190/16
f 111/191/61 112/192/61 124/193/61 123/194/61
f 114/195/62 115/196/62 127/197/62 126/198/62
f 117/199/63 118/200/63 130/201/63 129/202/63
f 110/203/8 111/191/8 123/194/8 122/204/8
f 113/205/64 114/195/64 126/198/64 125/206/64
f 83/207/16 113/205/16 125/206/16 46/208/16
f 103/138/3 104/137/3 116/209/3 115/170/3
f 106/146/16 96/145/16 108/165/16 118/173/16
f 100/167/65 45/188/65 83/210/65 112/168/65
f 97/163/66 98/175/66 110/176/66 109/164/66
f 104/137/67 105/172/67 117/174/67 116/209/67
f 45/188/16 101/177/16 113/178/16 83/210/16
f 46/208/16 47/211/16 71/212/16 95/213/16 119/214/16 120/215/16 121/216/16 122/204/16 123/194/16 124/193/16
f 119/214/16 95/213/16 128/217/16 129/202/16
f 71/212/16 47/211/16 126/198/16 127/197/16
f 120/215/16 119/214/16 129/202/16 130/201/16
f 47/211/16 46/208/16 125/206/16 126/198/16
f 95/213/16 71/212/16 127/197/16 128/217/16
f 108/218/68 109/219/68 121/216/68 120/215/68
f 115/196/3 116/220/3 128/217/3 127/197/3
f 118/200/16 108/218/16 120/215/16 130/201/16
f 112/192/69 83/207/69 46/208/69 124/193/69
f 109/219/70 110/203/70 122/204/70 121/216/70
f 116/220/71 117/199/71 129/202/71 128/217/71
f 138/151/72 139/185/72 163/221/72 162/222/72
f 141/223/73 140/148/73 164/224/73 165/225/73
f 28/144/74 131/143/74 155/226/74 151/227/74
f 148/140/37 147/139/37 171/228/37 172/229/37
f 137/152/75 138/151/75 162/222/75 161/230/75
f 30/158/16 134/157/16 158/231/16 153/232/16
f 29/180/76 28/144/76 151/227/76 152/233/76
f 147/139/77 146/154/77 170/234/77 171/228/77
f 136/182/16 137/152/16 161/230/16 160/235/16
f 139/185/16 29/180/16 152/233/16 163/221/16
f 146/154/78 145/183/78 169/236/78 170/234/78
f 135/187/79 136/182/79 160/235/79 159/237/79
f 93/150/16 94/184/16 139/185/16 138/151/16
f 97/163/16 96/145/16 140/148/16 141/223/16
f 101/177/16 45/188/16 107/190/16 145/183/16
f 86/142/16 87/238/16 132/239/16 131/143/16
f 105/172/16 104/137/16 148/140/16 149/240/16
f 98/175/16 97/163/16 141/223/16 142/241/16
f 87/238/16 88/242/16 133/243/16 132/239/16
f 106/146/16 105/172/16 149/240/16 150/147/16
f 99/166/16 98/175/16 142/241/16 143/244/16
f 88/242/16 59/155/16 30/158/16 133/243/16
f 100/167/16 99/166/16 143/244/16 144/189/16
f 89/156/16 90/186/16 135/187/16 134/157/16
f 160/235/3 161/230/3 172/229/3 171/228/3
f 152/233/80 151/227/80 165/225/80 164/224/80
f 156/245/81 157/246/81 168/247/81 167/248/81
f 159/237/82 160/235/82 171/228/82 170/234/82
f 162/222/83 163/221/83 174/249/83 173/250/83
f 155/226/8 156/245/8 167/248/8 166/251/8
f 163/221/16 152/233/16 164/224/16 174/249/16
f 157/246/84 153/232/84 154/252/84 168/247/84
f 151/227/85 155/226/85 166/251/85 165/225/85
f 161/230/86 162/222/86 173/250/86 172/229/86
f 153/232/16 158/231/16 169/236/16 154/252/16
f 158/231/87 159/237/87 170/234/87 169/236/87
f 149/240/88 148/140/88 172/229/88 173/250/88
f 131/143/16 132/239/16 156/245/16 155/226/16
f 142/241/89 141/223/89 165/225/89 166/251/89
f 150/147/90 149/240/90 173/250/90 174/249/90
f 132/239/91 133/243/91 157/246/91 156/245/91
f 143/244/37 142/241/37 166/251/37 167/248/37
f 140/148/16 150/147/16 174/249/16 164/224/16
f 133/243/92 30/158/92 153/232/92 157/246/92
f 144/189/93 143/244/93 167/248/93 168/247/93
f 145/183/16 107/190/16 154/252/16 169/236/16
f 134/157/94 135/187/94 159/237/94 158/231/94
f 107/190/95 144/189/95 168/247/95 154/252/95
f 187/135/16 177/253/16 188/134/16 198/97/16
f 184/254/3 185/255/3 196/127/3 195/256/3
f 177/253/96 178/257/96 189/125/96 188/134/96
f 180/98/97 181/91/97 192/89/97 191/88/97
f 183/84/98 184/254/98 195/256/98 194/258/98
f 186/136/99 187/135/99 198/97/99 197/96/99
f 181/91/100 175/90/100 176/131/100 192/89/100
f 178/257/101 179/128/101 190/93/101 189/125/101
f 185/255/102 186/136/102 197/96/102 196/127/102
f 175/90/16 182/85/16 193/132/16 176/131/16
f 182/85/103 183/84/103 194/258/103 193/132/103
f 179/128/8 180/98/8 191/88/8 190/93/8
f 44/130/104 76/86/104 192/89/104 176/131/104
f 66/76/105 67/70/105 184/254/105 183/84/105
f 70/66/16 60/65/16 177/253/16 187/135/16
f 78/259/106 77/129/106 193/132/106 194/258/106
f 67/70/16 68/69/16 185/255/16 184/254/16
f 60/65/107 61/72/107 178/257/107 177/253/107
f 31/61/16 65/83/16 182/85/16 175/90/16
f 79/260/108 78/259/108 194/258/108 195/256/108
f 68/69/109 69/102/109 186/136/109 185/255/109
f 72/133/16 82/94/16 198/97/16 188/134/16
f 61/72/110 62/100/110 179/128/110 178/257/110
f 80/126/37 79/260/37 195/256/37 196/127/37
f 205/261/111 204/262/111 214/263/111 215/264/111
f 16/15/112 14/13/112 205/261/112 206/19/112
f 14/13/113 12/11/113 204/262/113 205/261/113
f 12/11/114 10/9/114 203/265/114 204/262/114
f 10/9/115 8/7/115 202/266/115 203/265/115
f 4/3/116 2/2/116 199/267/116 200/268/116
f 8/7/3 6/5/3 201/269/3 202/266/3
f 6/5/117 4/3/117 200/268/117 201/269/117
f 2/2/118 20/21/118 208/270/118 199/267/118
f 20/21/119 18/17/119 207/20/119 208/270/119
f 210/271/37 209/272/37 218/273/37 217/274/37 216/275/37 215/264/37 214/263/37 213/276/37 212/277/37 211/278/37
f 202/266/120 201/269/120 211/278/120 212/277/120
f 199/267/121 208/270/121 218/273/121 209/272/121
f 206/19/122 205/261/122 215/264/122 216/275/122
f 203/265/123 202/266/123 212/277/123 213/276/123
f 200/268/124 199/267/124 209/272/124 210/271/124
f 207/20/125 206/19/125 216/275/125 217/274/125
f 204/262/126 203/265/126 213/276/126 214/263/126
f 201/269/127 200/268/127 210/271/127 211/278/127
f 208/270/128 207/20/128 217/274/128 218/273/128
