# Blender v2.79 (sub 0) OBJ File: 'Room.blend'
# www.blender.org
mtllib Room.mtl
o Room_Plane
v -9.899342 2.149143 0.740000
v -9.899342 2.149143 -0.740000
v 10.000000 3.000000 -10.000000
v -10.000000 3.000000 -10.000000
v 10.000000 3.000000 10.000000
v -10.000000 3.000000 10.000000
v -10.000000 0.000000 10.000000
v 10.000000 0.000000 10.000000
v -10.000000 0.000000 -10.000000
v 10.000000 0.000000 -10.000000
v -10.000000 2.149143 -0.740000
v -10.000000 0.000000 0.739999
v -9.899343 0.000000 0.740000
v -10.000000 2.149143 0.740000
v -9.899343 0.000000 -0.740000
v -10.000000 0.000000 -0.740000
vn 0.0000 -1.0000 0.0000
vn 0.0000 1.0000 0.0000
vn -1.0000 0.0000 0.0000
vn 1.0000 -0.0000 0.0000
vn 0.0000 0.0000 1.0000
vn 0.0000 0.0000 -1.0000
usemtl None
s off
f 2//1 1//1 14//1 11//1
f 6//1 4//1 3//1 5//1
f 7//2 8//2 10//2 9//2 16//2 15//2 13//2 12//2
f 8//3 5//3 3//3 10//3
f 9//4 4//4 6//4 7//4 12//4 14//4 11//4 16//4
f 10//5 3//5 4//5 9//5
f 7//6 6//6 5//6 8//6
f 15//5 2//5 11//5 16//5
f 14//6 1//6 13//6 12//6
