# Blender v2.79 (sub 0) OBJ File: 'Room.blend'
# www.blender.org
mtllib RoomL.mtl
o Room2Door_Plane.001
v 10.100000 3.000000 -86.217087
v -9.900000 3.000000 -86.217087
v -9.900000 0.000000 -86.217087
v 10.100000 0.000000 -86.217087
v 0.840000 2.149143 -86.217087
v -0.639998 0.000000 -86.217087
v -0.640000 0.000000 -86.116432
v -0.640000 2.149143 -86.217087
v 0.840000 0.000000 -86.116432
v 0.840000 0.000000 -86.217087
v 10.099999 3.000000 -46.204506
v -9.900001 3.000000 -46.204506
v -9.900001 0.000000 -46.204506
v 10.099999 0.000000 -46.204506
vn 0.0000 0.0000 1.0000
vn 1.0000 0.0000 0.0000
vn -1.0000 0.0000 -0.0000
vn 0.0000 1.0000 -0.0000
vn 0.0000 -1.0000 0.0000
usemtl None
s off
f 4//1 1//1 2//1 3//1 6//1 8//1 5//1 10//1
f 3//2 2//2 12//2 13//2
f 1//3 4//3 14//3 11//3
f 10//4 9//4 4//4
f 9//4 13//4 14//4
f 7//4 13//4 9//4
f 3//4 7//4 6//4
f 3//4 13//4 7//4
f 9//4 14//4 4//4
f 1//5 11//5 12//5 2//5
o RoomL_Plane.000
v 10.039774 3.000000 -10.000000
v 10.079715 3.000000 -30.072226
v -9.920285 3.000000 -10.072227
v -9.920285 3.000000 -30.072227
v -9.920285 0.000000 -30.072227
v -9.920285 0.000000 -10.072227
v 10.079715 0.000000 -30.072226
v 10.039774 0.000000 -10.000000
v -0.660284 0.000000 -30.072226
v -0.660285 0.000000 -29.971569
v 0.819715 0.000000 -29.971569
v 0.819714 0.000000 -30.072226
v 50.173264 3.000000 -10.000000
v 50.173264 3.000000 10.000000
v 10.039774 3.000000 10.000000
v 10.039774 0.000000 10.000000
v 50.173264 0.000000 10.000000
v 50.173264 0.000000 -10.000000
v -9.920290 0.000000 10.000000
v -9.920290 3.000000 10.000000
vn 0.0000 -1.0000 0.0000
vn -1.0000 0.0000 -0.0020
vn 1.0000 0.0000 0.0000
vn -1.0000 0.0000 0.0000
vn 0.0000 0.0000 1.0000
vn 0.0000 0.0000 -1.0000
vn 0.0000 1.0000 0.0000
usemtl None
s off
f 18//6 16//6 15//6 17//6
f 22//7 15//7 16//7 21//7
f 19//8 18//8 17//8 20//8
f 29//6 15//6 27//6 28//6
f 31//9 28//9 27//9 32//9
f 32//10 27//10 15//10 22//10
f 30//11 29//11 28//11 31//11
f 21//12 25//12 22//12
f 25//12 21//12 26//12
f 20//12 25//12 24//12
f 24//12 23//12 19//12
f 20//12 24//12 19//12
f 25//12 20//12 22//12
f 33//12 30//12 22//12 20//12
f 15//6 29//6 34//6 17//6
f 29//11 30//11 33//11 34//11
f 17//8 34//8 33//8 20//8
f 30//12 31//12 32//12 22//12
o RoomL.001_Plane.002
v 10.069774 3.000000 -36.780392
v 10.109715 3.000000 -46.231590
v -9.890285 3.000000 -36.852619
v -9.890285 3.000000 -46.231590
v -9.890285 0.000000 -46.231590
v -9.890285 0.000000 -36.852619
v 10.109715 0.000000 -46.231590
v 10.069774 0.000000 -36.780392
v -0.630284 0.000000 -46.231590
v -0.630285 0.000000 -46.130932
v 0.849715 0.000000 -46.130932
v 0.849714 0.000000 -46.231590
v 10.069774 3.000000 -30.000000
v 10.069774 0.000000 -30.000000
v -9.890290 0.000000 -30.000000
v -9.890290 3.000000 -30.000000
vn 0.0000 -1.0000 0.0000
vn -1.0000 0.0000 -0.0042
vn 1.0000 0.0000 0.0000
vn 0.0000 1.0000 0.0000
vn -1.0000 0.0000 0.0000
usemtl None
s off
f 38//13 36//13 35//13 37//13
f 42//14 35//14 36//14 41//14
f 39//15 38//15 37//15 40//15
f 41//16 45//16 42//16
f 45//16 41//16 46//16
f 40//16 45//16 44//16
f 44//16 43//16 39//16
f 40//16 44//16 39//16
f 45//16 40//16 42//16
f 49//16 48//16 42//16 40//16
f 35//13 47//13 50//13 37//13
f 37//15 50//15 49//15 40//15
f 42//17 48//17 47//17 35//17
